<svg width="151" height="33" viewBox="0 0 151 33" fill="none" xmlns="http://www.w3.org/2000/svg">
<path fill-rule="evenodd" clip-rule="evenodd" d="M12.5243 0.518775C10.8164 0.685242 9.43645 1.02947 8.09226 1.62437C7.10359 2.06188 5.91875 2.74922 5.63794 3.04812C5.35856 3.34549 5.54213 3.83176 5.95821 3.89671C6.11687 3.92145 6.21406 3.87729 6.72043 3.55032C7.40043 3.11117 8.45527 2.58196 9.20028 2.30607C9.73255 2.10894 11.0449 1.75454 11.2425 1.75454C11.3473 1.75454 11.3475 1.75728 11.2527 1.89963C10.3981 3.18219 9.79787 4.76883 9.30919 7.03694L9.2226 7.43879L8.86956 7.5259C8.09754 7.71637 7.51245 8.26848 7.25539 9.04901C7.227 9.13527 7.05505 9.14134 4.63793 9.14134C3.21507 9.14134 2.05091 9.1262 2.05091 9.10762C2.05091 9.01323 2.66196 7.84068 2.92693 7.42655C3.30519 6.8355 3.33104 6.63035 3.05789 6.38633C2.90657 6.25109 2.84958 6.23157 2.67452 6.25505C2.40321 6.29146 2.36248 6.33082 2.0164 6.89026C-0.768105 11.3917 -0.660943 17.1322 2.28966 21.5305L2.51412 21.8651L2.35894 22.1659C2.14478 22.5811 2.06537 23.0778 2.14177 23.5238C2.39672 25.0121 3.9986 25.8238 5.32791 25.1382L5.62649 24.9842L6.09434 25.2874C8.23915 26.6774 10.4967 27.3912 13.0474 27.4861C17.7553 27.6612 22.1958 25.3487 24.8259 21.3522C26.3189 19.0836 27.0932 16.2903 26.991 13.5425C26.8962 10.9917 26.1823 8.73422 24.7923 6.58941L24.4891 6.12156L24.6431 5.82298C24.8562 5.40984 24.9354 4.91255 24.8591 4.46723C24.604 2.97768 23.0023 2.1673 21.6708 2.85401L21.37 3.00918L21.0354 2.78473C19.3563 1.6583 17.4693 0.933914 15.3999 0.621241C14.8744 0.541833 12.9802 0.474349 12.5243 0.518775ZM13.9623 1.67354C15.12 2.21252 16.2774 4.82956 16.8217 8.13885C16.8813 8.50159 16.9431 8.87578 16.959 8.97034L16.9878 9.14229L14.2627 9.12862L11.5376 9.11496L11.4412 8.86101C11.2617 8.38789 10.9285 8.03137 10.2873 7.62641C10.2562 7.60684 10.4224 6.84046 10.6339 6.02833C11.3295 3.35568 12.4874 1.54454 13.5005 1.54454C13.602 1.54454 13.8099 1.60258 13.9623 1.67354ZM16.5691 1.93261C16.9562 2.03054 17.5104 2.19859 17.8006 2.30607C19.004 2.7517 20.7245 3.71742 20.651 3.90599C20.5231 4.23407 20.4549 4.66219 20.4809 4.97312C20.6094 6.50905 22.1192 7.41837 23.5894 6.84526C23.6602 6.81761 23.7456 6.91095 23.9842 7.27659C24.2724 7.71817 24.95 8.9935 24.95 9.09438C24.95 9.12134 23.4813 9.14134 21.5042 9.14134H18.0583L17.914 8.25756C17.4938 5.68363 16.7967 3.53555 15.9577 2.2294C15.8365 2.04077 15.7194 1.85679 15.6975 1.82049C15.6347 1.71681 15.8003 1.73813 16.5691 1.93261ZM23.2152 3.80142C24.0757 4.25096 24.0255 5.46767 23.1297 5.87685C22.3619 6.22756 21.4504 5.56206 21.5322 4.71052C21.5878 4.1315 22.1071 3.654 22.6812 3.654C22.8543 3.654 23.0212 3.70006 23.2152 3.80142ZM3.86595 4.57207C3.66857 4.76946 3.63923 4.93951 3.76175 5.17647C3.94336 5.52761 4.48502 5.52761 4.66663 5.17647C4.80666 4.90564 4.72135 4.59766 4.47035 4.46787C4.2334 4.34535 4.06334 4.37469 3.86595 4.57207ZM9.89628 8.64183C10.4481 8.91683 10.6942 9.57621 10.447 10.1175C10.0358 11.0176 8.82287 11.0633 8.36695 10.1958C8.23884 9.95199 8.21815 9.85923 8.23578 9.60708C8.29461 8.76546 9.14836 8.26917 9.89628 8.64183ZM7.25539 10.2889C7.44618 10.8683 7.89044 11.3968 8.39275 11.6422L8.69323 11.789L8.66305 13.2484C8.63604 14.5536 8.67366 15.8002 8.78631 17.3328L8.82023 17.7945H5.22861H1.63699L1.58148 17.623C1.46609 17.2665 1.26168 16.3439 1.17188 15.7742C1.10218 15.3317 1.07907 14.877 1.08013 13.9691C1.08187 12.5275 1.18444 11.7756 1.55705 10.4736L1.6363 10.1966H4.43062C7.04518 10.1966 7.22695 10.2026 7.25539 10.2889ZM17.113 10.2626C17.2222 10.5993 17.3322 13.9934 17.2752 15.269L17.2359 16.1467L17.0617 16.175C16.7422 16.2269 16.303 16.4858 16.0053 16.798C15.7423 17.0736 15.4545 17.5587 15.4532 17.7285C15.4524 17.8251 9.91918 17.8251 9.88789 17.7285C9.77877 17.3922 9.66871 13.998 9.72564 12.7247L9.76474 11.8495L10.0223 11.7835C10.3475 11.7002 10.8433 11.3821 11.065 11.1145C11.2184 10.9295 11.4339 10.5335 11.5145 10.2889C11.543 10.2026 11.7237 10.1966 14.3183 10.1966C16.4904 10.1966 17.0963 10.2109 17.113 10.2626ZM25.4194 10.3681C25.5355 10.7267 25.7394 11.6483 25.8283 12.2168C25.9593 13.053 25.9596 14.9022 25.8291 15.7367C25.732 16.3575 25.5881 17.0247 25.445 17.5174L25.3646 17.7945H22.5573H19.75L19.5988 17.4476C19.4073 17.0078 19.03 16.5934 18.6241 16.3771L18.3075 16.2084L18.3378 14.7458C18.3649 13.4373 18.3274 12.1921 18.2146 10.6583L18.1807 10.1966H21.7723H25.3639L25.4194 10.3681ZM18.0942 17.3064C18.2817 17.4014 18.4351 17.5304 18.539 17.6803C18.6823 17.887 18.6976 17.9489 18.6976 18.3221C18.6976 18.6953 18.6823 18.7572 18.539 18.9639C18.3535 19.2314 17.9075 19.483 17.6197 19.4825C16.9527 19.4815 16.4345 18.9742 16.4345 18.3221C16.4345 17.4484 17.3135 16.9105 18.0942 17.3064ZM9.08689 19.7335C9.51544 22.3585 10.2154 24.4896 11.093 25.8408C11.2916 26.1465 11.3173 26.2128 11.2423 26.2253C11.0998 26.2492 9.78273 25.9007 9.20028 25.685C7.99687 25.2394 6.27643 24.2736 6.34993 24.0851C6.47782 23.757 6.54605 23.3289 6.52003 23.0179C6.3915 21.482 4.88169 20.5727 3.41156 21.1458C3.34075 21.1734 3.25533 21.0801 3.01668 20.7145C2.72849 20.2729 2.05091 18.9976 2.05091 18.8967C2.05091 18.8697 3.51957 18.8497 5.49675 18.8497H8.94259L9.08689 19.7335ZM15.4532 18.9157C15.4535 18.952 15.512 19.1068 15.5832 19.2598C15.7432 19.6034 16.1687 20.0614 16.483 20.2281C16.6128 20.2969 16.719 20.3805 16.719 20.4137C16.719 20.5354 16.3984 21.8816 16.2392 22.4285C15.6458 24.4663 14.7874 25.9333 13.9641 26.3167C13.6125 26.4803 13.3888 26.4805 13.0386 26.3175C11.8796 25.7779 10.7659 23.2611 10.1776 19.8522C10.0899 19.3444 10.0182 18.9111 10.0182 18.8893C10.0181 18.8675 11.2409 18.8497 12.7354 18.8497C14.8738 18.8497 15.4528 18.8637 15.4532 18.9157ZM24.95 18.8842C24.95 18.9547 24.3256 20.1578 24.1046 20.5129C23.1224 22.0916 21.5966 23.6175 20.0178 24.5997C19.4646 24.9439 18.5003 25.4155 17.851 25.6596C17.2754 25.8759 15.969 26.2365 15.7609 26.2365C15.6534 26.2365 15.6532 26.2341 15.7483 26.0914C16.5949 24.8207 17.2211 23.1665 17.6924 20.9552L17.7778 20.5544L18.1058 20.4633C18.8119 20.2669 19.3205 19.8354 19.5988 19.1966L19.75 18.8497H22.35C23.78 18.8497 24.95 18.8652 24.95 18.8842ZM4.85368 22.1629C5.73682 22.6243 5.64876 23.9043 4.70921 24.2631C3.95634 24.5506 3.11408 23.9219 3.17054 23.1144C3.21328 22.5032 3.72328 22.0155 4.31972 22.0155C4.49283 22.0155 4.65967 22.0615 4.85368 22.1629Z" fill="#8E2424"/>
<g filter="url(#filter0_dd_0_9882)">
<path d="M47.8097 14.4545C47.8097 15.8523 47.554 17.054 47.0426 18.0597C46.5313 19.0611 45.8303 19.8324 44.9396 20.3736C44.0533 20.9105 43.0455 21.179 41.9162 21.179C40.7827 21.179 39.7706 20.9105 38.88 20.3736C37.9936 19.8324 37.2947 19.0589 36.7834 18.0533C36.272 17.0476 36.0163 15.848 36.0163 14.4545C36.0163 13.0568 36.272 11.8572 36.7834 10.8558C37.2947 9.85014 37.9936 9.07883 38.88 8.5419C39.7706 8.00071 40.7827 7.73011 41.9162 7.73011C43.0455 7.73011 44.0533 8.00071 44.9396 8.5419C45.8303 9.07883 46.5313 9.85014 47.0426 10.8558C47.554 11.8572 47.8097 13.0568 47.8097 14.4545ZM45.8537 14.4545C45.8537 13.3892 45.6811 12.4922 45.3359 11.7635C44.995 11.0305 44.5263 10.4766 43.9297 10.1016C43.3374 9.7223 42.6662 9.53267 41.9162 9.53267C41.1619 9.53267 40.4886 9.7223 39.8963 10.1016C39.304 10.4766 38.8352 11.0305 38.4901 11.7635C38.1491 12.4922 37.9787 13.3892 37.9787 14.4545C37.9787 15.5199 38.1491 16.419 38.4901 17.152C38.8352 17.8807 39.304 18.4347 39.8963 18.8139C40.4886 19.1889 41.1619 19.3764 41.9162 19.3764C42.6662 19.3764 43.3374 19.1889 43.9297 18.8139C44.5263 18.4347 44.995 17.8807 45.3359 17.152C45.6811 16.419 45.8537 15.5199 45.8537 14.4545ZM50.1188 24.6818V11.1818H51.9853V12.7734H52.1451C52.2559 12.5689 52.4157 12.3324 52.6245 12.0639C52.8333 11.7955 53.123 11.5611 53.4938 11.3608C53.8645 11.1562 54.3546 11.054 54.964 11.054C55.7566 11.054 56.464 11.2543 57.0861 11.6548C57.7083 12.0554 58.1962 12.6328 58.5499 13.3871C58.9078 14.1413 59.0868 15.049 59.0868 16.1101C59.0868 17.1712 58.91 18.081 58.5563 18.8395C58.2026 19.5937 57.7168 20.1754 57.0989 20.5845C56.481 20.9893 55.7757 21.1918 54.9831 21.1918C54.3865 21.1918 53.8986 21.0916 53.5194 20.8913C53.1444 20.6911 52.8503 20.4567 52.6373 20.1882C52.4242 19.9197 52.2601 19.6811 52.1451 19.4723H52.03V24.6818H50.1188ZM51.9917 16.0909C51.9917 16.7812 52.0918 17.3864 52.2921 17.9062C52.4924 18.4261 52.7821 18.8331 53.1614 19.1271C53.5407 19.4169 54.0051 19.5618 54.5549 19.5618C55.1259 19.5618 55.6032 19.4105 55.9867 19.108C56.3702 18.8011 56.66 18.3857 56.856 17.8615C57.0563 17.3374 57.1564 16.7472 57.1564 16.0909C57.1564 15.4432 57.0584 14.8615 56.8624 14.3459C56.6706 13.8303 56.3809 13.4233 55.9931 13.125C55.6096 12.8267 55.1301 12.6776 54.5549 12.6776C54.0009 12.6776 53.5321 12.8203 53.1486 13.1058C52.7694 13.3913 52.4817 13.7898 52.2857 14.3011C52.0897 14.8125 51.9917 15.4091 51.9917 16.0909ZM65.8113 11.1818V12.7159H60.4483V11.1818H65.8113ZM61.8865 8.82955H63.7978V18.1172C63.7978 18.4879 63.8532 18.767 63.964 18.9545C64.0748 19.1378 64.2175 19.2635 64.3922 19.3317C64.5712 19.3956 64.7651 19.4276 64.9739 19.4276C65.1273 19.4276 65.2615 19.4169 65.3766 19.3956C65.4917 19.3743 65.5811 19.3572 65.6451 19.3445L65.9902 20.9233C65.8794 20.9659 65.7218 21.0085 65.5172 21.0511C65.3127 21.098 65.057 21.1236 64.7502 21.1278C64.2473 21.1364 63.7786 21.0469 63.3439 20.8594C62.9093 20.6719 62.5577 20.3821 62.2892 19.9901C62.0208 19.598 61.8865 19.1058 61.8865 18.5135V8.82955ZM67.9254 21V11.1818H69.8366V21H67.9254ZM68.8906 9.6669C68.5582 9.6669 68.2727 9.55611 68.0341 9.33452C67.7997 9.10866 67.6825 8.8402 67.6825 8.52912C67.6825 8.21378 67.7997 7.94531 68.0341 7.72372C68.2727 7.49787 68.5582 7.38494 68.8906 7.38494C69.223 7.38494 69.5064 7.49787 69.7408 7.72372C69.9794 7.94531 70.0987 8.21378 70.0987 8.52912C70.0987 8.8402 69.9794 9.10866 69.7408 9.33452C69.5064 9.55611 69.223 9.6669 68.8906 9.6669ZM72.4078 21V11.1818H74.2424V12.7798H74.3638C74.5684 12.2386 74.9029 11.8168 75.3674 11.5142C75.8319 11.2074 76.388 11.054 77.0357 11.054C77.6919 11.054 78.2417 11.2074 78.6848 11.5142C79.1323 11.821 79.4625 12.2429 79.6756 12.7798H79.7779C80.0123 12.2557 80.3851 11.8381 80.8965 11.527C81.4078 11.2116 82.0172 11.054 82.7246 11.054C83.6152 11.054 84.3418 11.3331 84.9043 11.8913C85.4711 12.4496 85.7544 13.2912 85.7544 14.4162V21H83.8432V14.5952C83.8432 13.9304 83.6621 13.4489 83.2999 13.1506C82.9377 12.8523 82.5051 12.7031 82.0023 12.7031C81.3801 12.7031 80.8965 12.8949 80.5513 13.2784C80.2061 13.6577 80.0336 14.1456 80.0336 14.7422V21H78.1287V14.4737C78.1287 13.9411 77.9625 13.5128 77.6301 13.1889C77.2978 12.8651 76.8652 12.7031 76.3326 12.7031C75.9703 12.7031 75.6358 12.799 75.329 12.9908C75.0265 13.1783 74.7814 13.4403 74.5939 13.777C74.4107 14.1136 74.3191 14.5036 74.3191 14.9467V21H72.4078ZM94.5355 16.9283V11.1818H96.4531V21H94.5739V19.2997H94.4716C94.2457 19.8239 93.8835 20.2607 93.3849 20.6101C92.8906 20.9553 92.2749 21.1278 91.5376 21.1278C90.907 21.1278 90.3487 20.9893 89.8629 20.7124C89.3814 20.4311 89.0021 20.0156 88.7251 19.4659C88.4524 18.9162 88.3161 18.2365 88.3161 17.4268V11.1818H90.2273V17.1967C90.2273 17.8658 90.4126 18.3984 90.7834 18.7947C91.1541 19.1911 91.6357 19.3892 92.228 19.3892C92.5859 19.3892 92.9418 19.2997 93.2955 19.1207C93.6534 18.9418 93.9496 18.6712 94.1839 18.3089C94.4226 17.9467 94.5398 17.4865 94.5355 16.9283ZM106.378 13.5788L104.646 13.8857C104.574 13.6641 104.459 13.4531 104.301 13.2528C104.148 13.0526 103.939 12.8885 103.675 12.7607C103.41 12.6328 103.08 12.5689 102.684 12.5689C102.143 12.5689 101.691 12.6903 101.329 12.9332C100.966 13.1719 100.785 13.4808 100.785 13.8601C100.785 14.1882 100.907 14.4524 101.15 14.6527C101.393 14.853 101.785 15.017 102.326 15.1449L103.885 15.5028C104.789 15.7116 105.462 16.0334 105.905 16.468C106.349 16.9027 106.57 17.4673 106.57 18.1619C106.57 18.75 106.4 19.2741 106.059 19.7344C105.722 20.1903 105.251 20.5483 104.646 20.8082C104.045 21.0682 103.349 21.1982 102.556 21.1982C101.456 21.1982 100.559 20.9638 99.8649 20.495C99.1703 20.022 98.7441 19.3509 98.5865 18.4815L100.434 18.2003C100.549 18.6818 100.785 19.0462 101.143 19.2933C101.501 19.5362 101.968 19.6577 102.543 19.6577C103.17 19.6577 103.67 19.5277 104.045 19.2678C104.42 19.0036 104.608 18.6818 104.608 18.3026C104.608 17.9957 104.493 17.7379 104.263 17.5291C104.037 17.3203 103.689 17.1626 103.221 17.0561L101.559 16.6918C100.643 16.483 99.965 16.1506 99.5261 15.6946C99.0914 15.2386 98.8741 14.6612 98.8741 13.9624C98.8741 13.3828 99.036 12.8757 99.3599 12.4411C99.6838 12.0064 100.131 11.6676 100.702 11.4247C101.273 11.1776 101.927 11.054 102.665 11.054C103.726 11.054 104.561 11.2841 105.17 11.7443C105.78 12.2003 106.182 12.8118 106.378 13.5788ZM106.843 9.60938V7.90909H116.975V9.60938H112.89V21H110.922V9.60938H106.843ZM121.868 21.1982C120.901 21.1982 120.067 20.9915 119.369 20.5781C118.674 20.1605 118.137 19.5746 117.758 18.8203C117.383 18.0618 117.195 17.1733 117.195 16.1548C117.195 15.1491 117.383 14.2628 117.758 13.4957C118.137 12.7287 118.665 12.13 119.343 11.6996C120.025 11.2692 120.822 11.054 121.734 11.054C122.288 11.054 122.825 11.1456 123.344 11.3288C123.864 11.5121 124.331 11.7997 124.744 12.1918C125.158 12.5838 125.484 13.093 125.722 13.7195C125.961 14.3416 126.08 15.098 126.08 15.9886V16.6662H118.276V15.2344H124.207C124.207 14.7315 124.105 14.2862 123.901 13.8984C123.696 13.5064 123.408 13.1974 123.038 12.9716C122.671 12.7457 122.241 12.6328 121.746 12.6328C121.21 12.6328 120.741 12.7649 120.34 13.0291C119.944 13.2891 119.637 13.63 119.42 14.0518C119.207 14.4695 119.1 14.9233 119.1 15.4134V16.532C119.1 17.1882 119.215 17.7464 119.445 18.2067C119.68 18.6669 120.006 19.0185 120.423 19.2614C120.841 19.5 121.329 19.6193 121.887 19.6193C122.249 19.6193 122.58 19.5682 122.878 19.4659C123.176 19.3594 123.434 19.2017 123.651 18.9929C123.869 18.7841 124.035 18.5263 124.15 18.2195L125.959 18.5455C125.814 19.0781 125.554 19.5447 125.179 19.9453C124.808 20.3416 124.342 20.6506 123.779 20.8722C123.221 21.0895 122.584 21.1982 121.868 21.1982ZM132.336 21.1982C131.386 21.1982 130.568 20.983 129.882 20.5526C129.2 20.1179 128.676 19.5192 128.309 18.7564C127.943 17.9936 127.76 17.12 127.76 16.1357C127.76 15.1385 127.947 14.2585 128.322 13.4957C128.697 12.7287 129.226 12.13 129.907 11.6996C130.589 11.2692 131.393 11.054 132.317 11.054C133.063 11.054 133.728 11.1925 134.312 11.4695C134.895 11.7422 135.366 12.1257 135.724 12.62C136.086 13.1143 136.302 13.6918 136.37 14.3523H134.51C134.407 13.892 134.173 13.4957 133.807 13.1634C133.444 12.831 132.959 12.6648 132.349 12.6648C131.817 12.6648 131.35 12.8054 130.949 13.0866C130.553 13.3636 130.244 13.7599 130.023 14.2756C129.801 14.7869 129.69 15.392 129.69 16.0909C129.69 16.8068 129.799 17.4247 130.016 17.9446C130.233 18.4645 130.54 18.8672 130.937 19.1527C131.337 19.4382 131.808 19.581 132.349 19.581C132.711 19.581 133.04 19.5149 133.334 19.3828C133.632 19.2464 133.881 19.0526 134.081 18.8011C134.286 18.5497 134.429 18.2472 134.51 17.8935H136.37C136.302 18.5284 136.095 19.0952 135.75 19.5938C135.405 20.0923 134.942 20.4844 134.363 20.7699C133.787 21.0554 133.112 21.1982 132.336 21.1982ZM140.325 15.1705V21H138.414V7.90909H140.299V12.7798H140.421C140.651 12.2514 141.002 11.8317 141.475 11.5206C141.949 11.2095 142.566 11.054 143.329 11.054C144.002 11.054 144.591 11.1925 145.093 11.4695C145.6 11.7464 145.993 12.1598 146.27 12.7095C146.551 13.255 146.691 13.9368 146.691 14.755V21H144.78V14.9851C144.78 14.2649 144.595 13.7067 144.224 13.3104C143.853 12.9098 143.338 12.7095 142.677 12.7095C142.225 12.7095 141.821 12.8054 141.463 12.9972C141.109 13.1889 140.83 13.4702 140.625 13.8409C140.425 14.2074 140.325 14.6506 140.325 15.1705Z" fill="#3A404E"/>
<path d="M47.0426 18.0597L47.9332 18.5144L47.934 18.5129L47.0426 18.0597ZM44.9396 20.3736L45.4578 21.2289L45.4589 21.2282L44.9396 20.3736ZM38.88 20.3736L38.3588 21.2271L38.3637 21.23L38.88 20.3736ZM36.7834 18.0533L37.6748 17.6L36.7834 18.0533ZM36.7834 10.8558L37.674 11.3106L37.6748 11.3091L36.7834 10.8558ZM38.88 8.5419L39.3981 9.39721L39.3993 9.3965L38.88 8.5419ZM44.9396 8.5419L44.4185 9.3954L44.4233 9.39831L44.9396 8.5419ZM47.0426 10.8558L46.1512 11.3091L46.152 11.3106L47.0426 10.8558ZM45.3359 11.7635L44.4292 12.1852L44.4322 12.1916L45.3359 11.7635ZM43.9297 10.1016L43.3904 10.9438L43.3975 10.9482L43.9297 10.1016ZM39.8963 10.1016L40.4312 10.9465L40.4355 10.9437L39.8963 10.1016ZM38.4901 11.7635L37.5854 11.3374L37.5843 11.3397L38.4901 11.7635ZM38.4901 17.152L37.5833 17.5737L37.5863 17.5801L38.4901 17.152ZM39.8963 18.8139L39.3571 19.6561L39.3614 19.6588L39.8963 18.8139ZM43.9297 18.8139L44.4646 19.6588L44.4662 19.6578L43.9297 18.8139ZM45.3359 17.152L44.4312 16.7259L44.4302 16.7282L45.3359 17.152ZM46.8097 14.4545C46.8097 15.7317 46.5762 16.7707 46.1512 17.6064L47.934 18.5129C48.5318 17.3372 48.8097 15.9729 48.8097 14.4545H46.8097ZM46.152 17.6049C45.718 18.4547 45.14 19.0817 44.4203 19.519L45.4589 21.2282C46.5205 20.5831 47.3445 19.6674 47.9332 18.5144L46.152 17.6049ZM44.4215 19.5183C43.7053 19.9521 42.8797 20.179 41.9162 20.179V22.179C43.2112 22.179 44.4013 21.8689 45.4578 21.2289L44.4215 19.5183ZM41.9162 20.179C40.9477 20.179 40.1172 19.9518 39.3963 19.5172L38.3637 21.23C39.424 21.8692 40.6176 22.179 41.9162 22.179V20.179ZM39.4011 19.5201C38.6864 19.0837 38.1097 18.4554 37.6748 17.6L35.892 18.5065C36.4798 19.6625 37.3008 20.581 38.3589 21.2271L39.4011 19.5201ZM37.6748 17.6C37.2496 16.7639 37.0163 15.7268 37.0163 14.4545H35.0163C35.0163 15.9692 35.2944 17.3312 35.892 18.5065L37.6748 17.6ZM37.0163 14.4545C37.0163 13.1773 37.2499 12.1411 37.674 11.3106L35.8928 10.401C35.2941 11.5734 35.0163 12.9364 35.0163 14.4545H37.0163ZM37.6748 11.3091C38.1094 10.4543 38.6853 9.82902 39.3981 9.39721L38.3619 7.68659C37.302 8.32865 36.4801 9.24599 35.892 10.4026L37.6748 11.3091ZM39.3993 9.3965C40.1198 8.95869 40.9492 8.73011 41.9162 8.73011V6.73011C40.6161 6.73011 39.4214 7.04273 38.3607 7.68731L39.3993 9.3965ZM41.9162 8.73011C42.8782 8.73011 43.7027 8.95833 44.4185 9.39539L45.4607 7.68842C44.4038 7.04309 43.2127 6.73011 41.9162 6.73011V8.73011ZM44.4233 9.39831C45.1401 9.83043 45.7172 10.4555 46.1512 11.3091L47.934 10.4026C47.3453 9.24476 46.5204 8.32724 45.4559 7.6855L44.4233 9.39831ZM46.152 11.3106C46.5761 12.1411 46.8097 13.1773 46.8097 14.4545H48.8097C48.8097 12.9364 48.5319 11.5734 47.9332 10.401L46.152 11.3106ZM46.8537 14.4545C46.8537 13.2866 46.6652 12.2337 46.2397 11.3354L44.4322 12.1916C44.697 12.7507 44.8537 13.4918 44.8537 14.4545H46.8537ZM46.2427 11.3418C45.8327 10.4604 45.2446 9.74696 44.4619 9.25493L43.3975 10.9482C43.8079 11.2062 44.1573 11.6007 44.4292 12.1852L46.2427 11.3418ZM44.4689 9.2594C43.7048 8.77015 42.8441 8.53267 41.9162 8.53267V10.5327C42.4883 10.5327 42.9699 10.6745 43.3905 10.9437L44.4689 9.2594ZM41.9162 8.53267C40.9853 8.53267 40.1221 8.76955 39.3571 9.2594L40.4355 10.9437C40.8551 10.6751 41.3386 10.5327 41.9162 10.5327V8.53267ZM39.3614 9.25665C38.5848 9.74834 37.9986 10.4599 37.5854 11.3374L39.3948 12.1895C39.6718 11.6012 40.0232 11.2048 40.4312 10.9465L39.3614 9.25665ZM37.5843 11.3397C37.1646 12.2368 36.9787 13.2881 36.9787 14.4545H38.9787C38.9787 13.4904 39.1337 12.7476 39.3958 12.1872L37.5843 11.3397ZM36.9787 14.4545C36.9787 15.6213 37.1647 16.6737 37.5833 17.5737L39.3968 16.7303C39.1336 16.1644 38.9787 15.4184 38.9787 14.4545H36.9787ZM37.5863 17.5801C37.9997 18.4529 38.5847 19.1616 39.3571 19.6561L40.4355 17.9718C40.0232 17.7078 39.6707 17.3085 39.3938 16.7239L37.5863 17.5801ZM39.3614 19.6588C40.126 20.1429 40.9875 20.3764 41.9162 20.3764V18.3764C41.3363 18.3764 40.8513 18.235 40.4312 17.969L39.3614 19.6588ZM41.9162 20.3764C42.8418 20.3764 43.701 20.1423 44.4646 19.6588L43.3948 17.969C42.9737 18.2356 42.4906 18.3764 41.9162 18.3764V20.3764ZM44.4662 19.6578C45.2446 19.1629 45.8316 18.4524 46.2417 17.5757L44.4302 16.7282C44.1585 17.309 43.8079 17.7064 43.3932 17.97L44.4662 19.6578ZM46.2406 17.578C46.6651 16.6768 46.8537 15.6228 46.8537 14.4545H44.8537C44.8537 15.417 44.6971 16.1613 44.4312 16.7259L46.2406 17.578ZM50.1188 24.6818H49.1188V25.6818H50.1188V24.6818ZM50.1188 11.1818V10.1818H49.1188V11.1818H50.1188ZM51.9853 11.1818H52.9853V10.1818H51.9853V11.1818ZM51.9853 12.7734H50.9853V13.7734H51.9853V12.7734ZM52.1451 12.7734V13.7734H52.7407L53.0244 13.2497L52.1451 12.7734ZM52.6245 12.0639L53.4138 12.6779V12.6779L52.6245 12.0639ZM53.4938 11.3608L53.9691 12.2407L53.9769 12.2364L53.4938 11.3608ZM57.0861 11.6548L56.5448 12.4956H56.5448L57.0861 11.6548ZM58.5499 13.3871L57.6445 13.8116L57.6465 13.8158L58.5499 13.3871ZM58.5563 18.8395L59.4617 19.2641L59.4626 19.2621L58.5563 18.8395ZM57.0989 20.5845L57.6469 21.421L57.6509 21.4183L57.0989 20.5845ZM53.5194 20.8913L53.0482 21.7734L53.0524 21.7756L53.5194 20.8913ZM52.6373 20.1882L53.4205 19.5666L52.6373 20.1882ZM52.1451 19.4723L53.0209 18.9897L52.7358 18.4723H52.1451V19.4723ZM52.03 19.4723V18.4723H51.03V19.4723H52.03ZM52.03 24.6818V25.6818H53.03V24.6818H52.03ZM52.2921 17.9062L51.3589 18.2657L52.2921 17.9062ZM53.1614 19.1271L52.5487 19.9175L52.5543 19.9217L53.1614 19.1271ZM55.9867 19.108L56.6061 19.8931L56.6114 19.8888L55.9867 19.108ZM56.856 17.8615L55.9219 17.5046L55.9194 17.5112L56.856 17.8615ZM56.8624 14.3459L55.9251 14.6945L55.9277 14.7012L56.8624 14.3459ZM55.9931 13.125L55.3791 13.9144L55.3834 13.9176L55.9931 13.125ZM53.1486 13.1058L52.5515 12.3037L52.5472 12.3069L53.1486 13.1058ZM52.2857 14.3011L53.2194 14.6591V14.6591L52.2857 14.3011ZM51.1188 24.6818V11.1818H49.1188V24.6818H51.1188ZM50.1188 12.1818H51.9853V10.1818H50.1188V12.1818ZM50.9853 11.1818V12.7734H52.9853V11.1818H50.9853ZM51.9853 13.7734H52.1451V11.7734H51.9853V13.7734ZM53.0244 13.2497C53.1001 13.11 53.2248 12.9209 53.4138 12.6779L51.8351 11.45C51.6065 11.7439 51.4117 12.0278 51.2658 12.2972L53.0244 13.2497ZM53.4138 12.6779C53.5197 12.5417 53.692 12.3903 53.9691 12.2406L53.0185 10.481C52.5541 10.7319 52.1468 11.0492 51.8351 11.45L53.4138 12.6779ZM53.9769 12.2364C54.1489 12.1415 54.454 12.054 54.964 12.054V10.054C54.2551 10.054 53.5802 10.171 53.0107 10.4852L53.9769 12.2364ZM54.964 12.054C55.5789 12.054 56.0956 12.2065 56.5448 12.4956L57.6275 10.814C56.8323 10.3021 55.9343 10.054 54.964 10.054V12.054ZM56.5448 12.4956C56.9896 12.782 57.3603 13.2056 57.6445 13.8116L59.4553 12.9625C59.0321 12.0601 58.427 11.3288 57.6275 10.814L56.5448 12.4956ZM57.6465 13.8158C57.926 14.4049 58.0868 15.1584 58.0868 16.1101H60.0868C60.0868 14.9396 59.8897 13.8778 59.4533 12.9583L57.6465 13.8158ZM58.0868 16.1101C58.0868 17.063 57.9277 17.8212 57.65 18.4169L59.4626 19.2621C59.8922 18.3408 60.0868 17.2793 60.0868 16.1101H58.0868ZM57.6509 18.4149C57.3652 19.0241 56.9932 19.4552 56.5469 19.7507L57.6509 21.4183C58.4404 20.8957 59.04 20.1634 59.4617 19.2641L57.6509 18.4149ZM56.5509 19.7481C56.1078 20.0383 55.5959 20.1918 54.9831 20.1918V22.1918C55.9556 22.1918 56.8542 21.9404 57.6469 21.421L56.5509 19.7481ZM54.9831 20.1918C54.4891 20.1918 54.1765 20.1075 53.9863 20.0071L53.0524 21.7756C53.6207 22.0757 54.284 22.1918 54.9831 22.1918V20.1918ZM53.9905 20.0093C53.7081 19.8584 53.5306 19.7053 53.4205 19.5666L51.854 20.8099C52.17 21.2081 52.5806 21.5237 53.0482 21.7734L53.9905 20.0093ZM53.4205 19.5666C53.2285 19.3246 53.1002 19.1336 53.0209 18.9897L51.2692 19.9549C51.42 20.2286 51.6199 20.5149 51.854 20.8099L53.4205 19.5666ZM52.1451 18.4723H52.03V20.4723H52.1451V18.4723ZM51.03 19.4723V24.6818H53.03V19.4723H51.03ZM52.03 23.6818H50.1188V25.6818H52.03V23.6818ZM50.9917 16.0909C50.9917 16.8758 51.1053 17.6074 51.3589 18.2657L53.2252 17.5468C53.0783 17.1654 52.9917 16.6867 52.9917 16.0909H50.9917ZM51.3589 18.2657C51.614 18.928 52.0035 19.4947 52.5487 19.9174L53.7741 18.3368C53.5608 18.1714 53.3707 17.9243 53.2252 17.5468L51.3589 18.2657ZM52.5543 19.9217C53.1336 20.3644 53.8205 20.5618 54.5549 20.5618V18.5618C54.1898 18.5618 53.9477 18.4694 53.7685 18.3325L52.5543 19.9217ZM54.5549 20.5618C55.311 20.5618 56.0173 20.3575 56.606 19.8931L55.3673 18.3228C55.189 18.4635 54.9408 18.5618 54.5549 18.5618V20.5618ZM56.6114 19.8888C57.1546 19.4542 57.5424 18.881 57.7926 18.2118L55.9194 17.5112C55.7776 17.8903 55.5858 18.148 55.362 18.3271L56.6114 19.8888ZM57.7901 18.2184C58.0407 17.5628 58.1564 16.8488 58.1564 16.0909H56.1564C56.1564 16.6455 56.0719 17.1119 55.9219 17.5046L57.7901 18.2184ZM58.1564 16.0909C58.1564 15.3425 58.0431 14.6376 57.7971 13.9905L55.9277 14.7012C56.0737 15.0855 56.1564 15.5439 56.1564 16.0909H58.1564ZM57.7997 13.9973C57.5509 13.3284 57.1572 12.7588 56.6028 12.3324L55.3834 13.9176C55.6045 14.0878 55.7904 14.3321 55.9251 14.6945L57.7997 13.9973ZM56.607 12.3356C56.0172 11.8769 55.3101 11.6776 54.5549 11.6776V13.6776C54.9502 13.6776 55.2019 13.7765 55.3791 13.9144L56.607 12.3356ZM54.5549 11.6776C53.8212 11.6776 53.134 11.87 52.5515 12.3037L53.7458 13.908C53.9303 13.7706 54.1806 13.6776 54.5549 13.6776V11.6776ZM52.5472 12.3069C51.9961 12.7218 51.6046 13.284 51.3519 13.9432L53.2194 14.6591C53.3588 14.2955 53.5426 14.0609 53.75 13.9047L52.5472 12.3069ZM51.3519 13.9432C51.1029 14.593 50.9917 15.3156 50.9917 16.0909H52.9917C52.9917 15.5026 53.0765 15.032 53.2194 14.6591L51.3519 13.9432ZM65.8113 11.1818H66.8113V10.1818H65.8113V11.1818ZM65.8113 12.7159V13.7159H66.8113V12.7159H65.8113ZM60.4483 12.7159H59.4483V13.7159H60.4483V12.7159ZM60.4483 11.1818V10.1818H59.4483V11.1818H60.4483ZM61.8865 8.82955V7.82955H60.8865V8.82955H61.8865ZM63.7978 8.82955H64.7978V7.82955H63.7978V8.82955ZM63.964 18.9545L63.103 19.4633L63.1082 19.472L63.964 18.9545ZM64.3922 19.3317L64.0287 20.2633L64.0422 20.2685L64.0559 20.2734L64.3922 19.3317ZM65.3766 19.3956L65.5587 20.3789V20.3789L65.3766 19.3956ZM65.6451 19.3445L66.622 19.1309L66.4122 18.1712L65.4489 18.3639L65.6451 19.3445ZM65.9902 20.9233L66.3492 21.8566L67.1505 21.5484L66.9672 20.7097L65.9902 20.9233ZM65.5172 21.0511L65.3133 20.0722L65.3035 20.0742L65.2938 20.0764L65.5172 21.0511ZM64.7502 21.1278L64.7363 20.1279L64.7332 20.128L64.7502 21.1278ZM63.3439 20.8594L62.9478 21.7776L63.3439 20.8594ZM62.2892 19.9901L61.4642 20.5551V20.5551L62.2892 19.9901ZM64.8113 11.1818V12.7159H66.8113V11.1818H64.8113ZM65.8113 11.7159H60.4483V13.7159H65.8113V11.7159ZM61.4483 12.7159V11.1818H59.4483V12.7159H61.4483ZM60.4483 12.1818H65.8113V10.1818H60.4483V12.1818ZM61.8865 9.82955H63.7978V7.82955H61.8865V9.82955ZM62.7978 8.82955V18.1172H64.7978V8.82955H62.7978ZM62.7978 18.1172C62.7978 18.5562 62.8578 19.0483 63.103 19.4633L64.8249 18.4458C64.8415 18.4739 64.8323 18.4708 64.8202 18.4099C64.8084 18.3503 64.7978 18.2556 64.7978 18.1172H62.7978ZM63.1082 19.472C63.3161 19.8157 63.6203 20.1039 64.0287 20.2633L64.7558 18.4001C64.7789 18.4091 64.7999 18.4225 64.815 18.4358C64.829 18.4481 64.8289 18.4524 64.8197 18.4371L63.1082 19.472ZM64.0559 20.2734C64.3529 20.3795 64.6618 20.4276 64.9739 20.4276V18.4276C64.8684 18.4276 64.7895 18.4117 64.7286 18.3899L64.0559 20.2734ZM64.9739 20.4276C65.1707 20.4276 65.3684 20.4141 65.5587 20.3789L65.1945 18.4123C65.1547 18.4197 65.0839 18.4276 64.9739 18.4276V20.4276ZM65.5587 20.3789C65.6754 20.3573 65.7703 20.3392 65.8412 20.325L65.4489 18.3639C65.392 18.3753 65.3079 18.3913 65.1945 18.4123L65.5587 20.3789ZM64.6681 19.558L65.0133 21.1369L66.9672 20.7097L66.622 19.1309L64.6681 19.558ZM65.6313 19.99C65.5948 20.004 65.4982 20.0336 65.3133 20.0722L65.7212 22.0301C65.9453 21.9834 66.164 21.9279 66.3492 21.8566L65.6313 19.99ZM65.2938 20.0764C65.1816 20.1021 65.0018 20.1243 64.7363 20.1279L64.7641 22.1277C65.1122 22.1229 65.4437 22.0939 65.7406 22.0259L65.2938 20.0764ZM64.7332 20.128C64.3633 20.1343 64.0363 20.069 63.74 19.9412L62.9478 21.7776C63.5209 22.0248 64.1314 22.1385 64.7671 22.1277L64.7332 20.128ZM63.74 19.9412C63.4795 19.8288 63.2765 19.6618 63.1143 19.4251L61.4642 20.5551C61.839 21.1024 62.339 21.5149 62.9478 21.7776L63.74 19.9412ZM63.1143 19.4251C62.9851 19.2364 62.8865 18.9542 62.8865 18.5135H60.8865C60.8865 19.2575 61.0564 19.9597 61.4642 20.5551L63.1143 19.4251ZM62.8865 18.5135V8.82955H60.8865V18.5135H62.8865ZM67.9254 21H66.9254V22H67.9254V21ZM67.9254 11.1818V10.1818H66.9254V11.1818H67.9254ZM69.8366 11.1818H70.8366V10.1818H69.8366V11.1818ZM69.8366 21V22H70.8366V21H69.8366ZM68.0341 9.33452L67.3402 10.0546L67.3469 10.061L67.3536 10.0673L68.0341 9.33452ZM68.0341 7.72372L68.7211 8.45037L68.7215 8.45001L68.0341 7.72372ZM69.7408 7.72372L69.0469 8.4438L69.0535 8.45022L69.0603 8.45651L69.7408 7.72372ZM69.7408 9.33452L70.4278 10.0612L70.4282 10.0608L69.7408 9.33452ZM68.9254 21V11.1818H66.9254V21H68.9254ZM67.9254 12.1818H69.8366V10.1818H67.9254V12.1818ZM68.8366 11.1818V21H70.8366V11.1818H68.8366ZM69.8366 20H67.9254V22H69.8366V20ZM68.8906 8.6669C68.8049 8.6669 68.764 8.64766 68.7145 8.60172L67.3536 10.0673C67.7814 10.4646 68.3116 10.6669 68.8906 10.6669V8.6669ZM68.728 8.61444C68.6948 8.58242 68.6875 8.56502 68.6869 8.56372C68.6862 8.56205 68.6854 8.55998 68.6847 8.55624C68.6839 8.55234 68.6825 8.54379 68.6825 8.52912H66.6825C66.6825 9.12562 66.9204 9.65003 67.3402 10.0546L68.728 8.61444ZM68.6825 8.52912C68.6825 8.51249 68.684 8.50269 68.6849 8.49821C68.6858 8.49392 68.6866 8.49209 68.6869 8.49132C68.6873 8.49051 68.6886 8.48743 68.6928 8.48161C68.6971 8.47561 68.7056 8.46498 68.7211 8.45037L67.3471 6.99707C66.9181 7.40268 66.6825 7.93181 66.6825 8.52912H68.6825ZM68.7215 8.45001C68.772 8.40219 68.8106 8.38494 68.8906 8.38494V6.38494C68.3059 6.38494 67.7734 6.59355 67.3467 6.99743L68.7215 8.45001ZM68.8906 8.38494C68.9703 8.38494 69.0032 8.40173 69.0469 8.4438L70.4347 7.00364C70.0096 6.59401 69.4757 6.38494 68.8906 6.38494V8.38494ZM69.0603 8.45651C69.0765 8.47158 69.0854 8.48249 69.0899 8.48854C69.0941 8.49439 69.0953 8.49721 69.0954 8.4974C69.0955 8.49754 69.096 8.49847 69.0966 8.50164C69.0973 8.50501 69.0987 8.51364 69.0987 8.52912H71.0987C71.0987 7.92559 70.8561 7.39473 70.4212 6.99093L69.0603 8.45651ZM69.0987 8.52912C69.0987 8.54262 69.0975 8.55 69.0969 8.55279C69.0964 8.55541 69.0959 8.55659 69.0954 8.55764C69.0954 8.55776 69.0882 8.57529 69.0534 8.60822L70.4282 10.0608C70.8538 9.65799 71.0987 9.13181 71.0987 8.52912H69.0987ZM69.0538 8.60787C69.0112 8.64807 68.9761 8.6669 68.8906 8.6669V10.6669C69.4699 10.6669 70.0015 10.4641 70.4278 10.0612L69.0538 8.60787ZM72.4078 21H71.4078V22H72.4078V21ZM72.4078 11.1818V10.1818H71.4078V11.1818H72.4078ZM74.2424 11.1818H75.2424V10.1818H74.2424V11.1818ZM74.2424 12.7798H73.2424V13.7798H74.2424V12.7798ZM74.3638 12.7798V13.7798H75.0549L75.2992 13.1334L74.3638 12.7798ZM75.3674 11.5142L75.9132 12.3521L75.9185 12.3486L75.3674 11.5142ZM78.6848 11.5142L78.1156 12.3364L78.1193 12.3389L78.6848 11.5142ZM79.6756 12.7798L78.7461 13.1487L78.9966 13.7798H79.6756V12.7798ZM79.7779 12.7798V13.7798H80.4261L80.6908 13.188L79.7779 12.7798ZM80.8965 11.527L81.4162 12.3813L81.4214 12.3782L80.8965 11.527ZM84.9043 11.8913L84.1999 12.6011L84.2026 12.6038L84.9043 11.8913ZM85.7544 21V22H86.7544V21H85.7544ZM83.8432 21H82.8432V22H83.8432V21ZM83.2999 13.1506L83.9356 12.3786L83.2999 13.1506ZM80.5513 13.2784L81.2909 13.9515L81.2946 13.9474L80.5513 13.2784ZM80.0336 21V22H81.0336V21H80.0336ZM78.1287 21H77.1287V22H78.1287V21ZM77.6301 13.1889L76.9323 13.9051V13.9052L77.6301 13.1889ZM75.329 12.9908L75.8558 13.8408L75.859 13.8388L75.329 12.9908ZM74.5939 13.777L73.7203 13.2904L73.7156 13.2989L74.5939 13.777ZM74.3191 21V22H75.3191V21H74.3191ZM73.4078 21V11.1818H71.4078V21H73.4078ZM72.4078 12.1818H74.2424V10.1818H72.4078V12.1818ZM73.2424 11.1818V12.7798H75.2424V11.1818H73.2424ZM74.2424 13.7798H74.3638V11.7798H74.2424V13.7798ZM75.2992 13.1334C75.4322 12.7817 75.6348 12.5334 75.9132 12.3521L74.8216 10.6763C74.1709 11.1001 73.7046 11.6956 73.4284 12.4263L75.2992 13.1334ZM75.9185 12.3486C76.1941 12.1666 76.5511 12.054 77.0357 12.054V10.054C76.2248 10.054 75.4696 10.2482 74.8162 10.6798L75.9185 12.3486ZM77.0357 12.054C77.5334 12.054 77.8731 12.1685 78.1156 12.3364L79.254 10.692C78.6102 10.2463 77.8505 10.054 77.0357 10.054V12.054ZM78.1193 12.3389C78.392 12.5259 78.6014 12.7839 78.7461 13.1487L80.6051 12.411C80.3237 11.7019 79.8726 11.1161 79.2504 10.6895L78.1193 12.3389ZM79.6756 13.7798H79.7779V11.7798H79.6756V13.7798ZM80.6908 13.188C80.8387 12.8572 81.0703 12.5918 81.4162 12.3813L80.3768 10.6727C79.6999 11.0844 79.1858 11.6542 78.865 12.3716L80.6908 13.188ZM81.4214 12.3782C81.7488 12.1762 82.1693 12.054 82.7246 12.054V10.054C81.8652 10.054 81.0669 10.2471 80.3716 10.6758L81.4214 12.3782ZM82.7246 12.054C83.387 12.054 83.8486 12.2525 84.1999 12.6011L85.6087 11.1815C84.835 10.4137 83.8435 10.054 82.7246 10.054V12.054ZM84.2026 12.6038C84.5111 12.9076 84.7544 13.4466 84.7544 14.4162H86.7544C86.7544 13.1358 86.4311 11.9915 85.606 11.1789L84.2026 12.6038ZM84.7544 14.4162V21H86.7544V14.4162H84.7544ZM85.7544 20H83.8432V22H85.7544V20ZM84.8432 21V14.5952H82.8432V21H84.8432ZM84.8432 14.5952C84.8432 13.7615 84.6128 12.9364 83.9356 12.3786L82.6642 13.9225C82.7114 13.9614 82.8432 14.0993 82.8432 14.5952H84.8432ZM83.9356 12.3786C83.381 11.9219 82.7192 11.7031 82.0023 11.7031V13.7031C82.2911 13.7031 82.4943 13.7826 82.6642 13.9225L83.9356 12.3786ZM82.0023 11.7031C81.1601 11.7031 80.3815 11.9723 79.808 12.6094L81.2946 13.9474C81.4115 13.8175 81.6002 13.7031 82.0023 13.7031V11.7031ZM79.8117 12.6053C79.272 13.1984 79.0336 13.94 79.0336 14.7422H81.0336C81.0336 14.3512 81.1403 14.1169 81.2909 13.9515L79.8117 12.6053ZM79.0336 14.7422V21H81.0336V14.7422H79.0336ZM80.0336 20H78.1287V22H80.0336V20ZM79.1287 21V14.4737H77.1287V21H79.1287ZM79.1287 14.4737C79.1287 13.7148 78.8826 13.0131 78.328 12.4727L76.9323 13.9052C77.0424 14.0125 77.1287 14.1673 77.1287 14.4737H79.1287ZM78.328 12.4727C77.781 11.9397 77.0843 11.7031 76.3326 11.7031V13.7031C76.6462 13.7031 76.8145 13.7904 76.9323 13.9051L78.328 12.4727ZM76.3326 11.7031C75.7831 11.7031 75.2649 11.8516 74.799 12.1428L75.859 13.8388C76.0067 13.7465 76.1575 13.7031 76.3326 13.7031V11.7031ZM74.8022 12.1408C74.3432 12.4252 73.9836 12.8177 73.7203 13.2904L75.4676 14.2636C75.5793 14.063 75.7097 13.9313 75.8558 13.8408L74.8022 12.1408ZM73.7156 13.2989C73.4408 13.8037 73.3191 14.3628 73.3191 14.9467H75.3191C75.3191 14.6443 75.3805 14.4235 75.4722 14.2551L73.7156 13.2989ZM73.3191 14.9467V21H75.3191V14.9467H73.3191ZM74.3191 20H72.4078V22H74.3191V20ZM94.5355 16.9283H93.5355L93.5355 16.9359L94.5355 16.9283ZM94.5355 11.1818V10.1818H93.5355V11.1818H94.5355ZM96.4531 11.1818H97.4531V10.1818H96.4531V11.1818ZM96.4531 21V22H97.4531V21H96.4531ZM94.5739 21H93.5739V22H94.5739V21ZM94.5739 19.2997H95.5739V18.2997H94.5739V19.2997ZM94.4716 19.2997V18.2997H93.8136L93.5532 18.904L94.4716 19.2997ZM93.3849 20.6101L93.9575 21.43L93.9589 21.429L93.3849 20.6101ZM89.8629 20.7124L89.3586 21.5759L89.3676 21.5811L89.8629 20.7124ZM88.7251 19.4659L87.8293 19.9104L87.8321 19.9159L88.7251 19.4659ZM88.3161 11.1818V10.1818H87.3161V11.1818H88.3161ZM90.2273 11.1818H91.2273V10.1818H90.2273V11.1818ZM90.7834 18.7947L91.5137 18.1116L90.7834 18.7947ZM93.2955 19.1207L92.8482 18.2263L92.8439 18.2285L93.2955 19.1207ZM94.1839 18.3089L93.3489 17.7588L93.3444 17.7657L94.1839 18.3089ZM95.5355 16.9283V11.1818H93.5355V16.9283H95.5355ZM94.5355 12.1818H96.4531V10.1818H94.5355V12.1818ZM95.4531 11.1818V21H97.4531V11.1818H95.4531ZM96.4531 20H94.5739V22H96.4531V20ZM95.5739 21V19.2997H93.5739V21H95.5739ZM94.5739 18.2997H94.4716V20.2997H94.5739V18.2997ZM93.5532 18.904C93.4057 19.2464 93.1683 19.5408 92.811 19.7912L93.9589 21.429C94.5987 20.9806 95.0858 20.4013 95.39 19.6954L93.5532 18.904ZM92.8124 19.7902C92.5203 19.9942 92.1163 20.1278 91.5376 20.1278V22.1278C92.4334 22.1278 93.2609 21.9163 93.9575 21.43L92.8124 19.7902ZM91.5376 20.1278C91.0581 20.1278 90.6746 20.024 90.3582 19.8436L89.3676 21.5811C90.0228 21.9546 90.7559 22.1278 91.5376 22.1278V20.1278ZM90.3673 19.8489C90.0696 19.675 89.8176 19.4117 89.6182 19.0159L87.8321 19.9159C88.1866 20.6195 88.6932 21.1872 89.3586 21.5759L90.3673 19.8489ZM89.621 19.0215C89.435 18.6467 89.3161 18.1295 89.3161 17.4268H87.3161C87.3161 18.3435 87.4698 19.1856 87.8293 19.9103L89.621 19.0215ZM89.3161 17.4268V11.1818H87.3161V17.4268H89.3161ZM88.3161 12.1818H90.2273V10.1818H88.3161V12.1818ZM89.2273 11.1818V17.1967H91.2273V11.1818H89.2273ZM89.2273 17.1967C89.2273 18.0574 89.4709 18.8555 90.0531 19.4779L91.5137 18.1116C91.3544 17.9414 91.2273 17.6741 91.2273 17.1967H89.2273ZM90.0531 19.4779C90.6314 20.096 91.3871 20.3892 92.228 20.3892V18.3892C91.8843 18.3892 91.6769 18.2861 91.5137 18.1116L90.0531 19.4779ZM92.228 20.3892C92.759 20.3892 93.2686 20.2551 93.747 20.013L92.8439 18.2285C92.615 18.3443 92.4128 18.3892 92.228 18.3892V20.3892ZM93.7427 20.0152C94.2729 19.7501 94.6999 19.3523 95.0235 18.8522L93.3444 17.7657C93.1992 17.99 93.034 18.1335 92.8482 18.2263L93.7427 20.0152ZM95.019 18.8591C95.3941 18.2898 95.5408 17.6206 95.5355 16.9206L93.5355 16.9359C93.5387 17.3524 93.4511 17.6036 93.3489 17.7588L95.019 18.8591ZM106.378 13.5788L106.553 14.5635L107.614 14.3755L107.347 13.3312L106.378 13.5788ZM104.646 13.8857L103.696 14.1964L103.965 15.0218L104.821 14.8703L104.646 13.8857ZM104.301 13.2528L103.507 13.861L103.515 13.8714L104.301 13.2528ZM103.675 12.7607L104.11 11.8605L103.675 12.7607ZM101.329 12.9332L101.879 13.7683L101.886 13.7638L101.329 12.9332ZM102.326 15.1449L102.096 16.1181L102.102 16.1195L102.326 15.1449ZM103.885 15.5028L104.111 14.5285L104.109 14.5282L103.885 15.5028ZM105.905 16.468L105.205 17.182L105.905 16.468ZM106.059 19.7344L105.255 19.1391L105.254 19.1404L106.059 19.7344ZM104.646 20.8082L104.251 19.8894L104.249 19.8904L104.646 20.8082ZM99.8649 20.495L99.302 21.3216L99.3055 21.3239L99.8649 20.495ZM98.5865 18.4815L98.436 17.4929L97.4189 17.6478L97.6025 18.66L98.5865 18.4815ZM100.434 18.2003L101.406 17.9679L101.193 17.0732L100.283 17.2117L100.434 18.2003ZM101.143 19.2933L100.575 20.1162L100.582 20.1208L101.143 19.2933ZM104.045 19.2678L104.615 20.0896L104.621 20.0852L104.045 19.2678ZM104.263 17.5291L103.584 18.2634L103.591 18.2697L104.263 17.5291ZM103.221 17.0561L103.442 16.0809L103.435 16.0793L103.221 17.0561ZM101.559 16.6918L101.337 17.6668L101.345 17.6686L101.559 16.6918ZM99.5261 15.6946L98.8023 16.3846L98.8057 16.3881L99.5261 15.6946ZM99.3599 12.4411L98.558 11.8436V11.8436L99.3599 12.4411ZM100.702 11.4247L101.094 12.3449L101.099 12.3424L100.702 11.4247ZM105.17 11.7443L104.568 12.5423L104.571 12.545L105.17 11.7443ZM106.204 12.5942L104.472 12.901L104.821 14.8703L106.553 14.5635L106.204 12.5942ZM105.597 13.5749C105.484 13.2319 105.31 12.9181 105.087 12.6343L103.515 13.8714C103.607 13.9881 103.663 14.0962 103.696 14.1964L105.597 13.5749ZM105.095 12.6448C104.832 12.3017 104.492 12.0453 104.11 11.8605L103.239 13.6608C103.386 13.7317 103.463 13.8034 103.507 13.8609L105.095 12.6448ZM104.11 11.8605C103.671 11.6481 103.181 11.5689 102.684 11.5689V13.5689C102.979 13.5689 103.149 13.6175 103.239 13.6608L104.11 11.8605ZM102.684 11.5689C101.992 11.5689 101.334 11.7253 100.772 12.1027L101.886 13.7638C102.047 13.6554 102.293 13.5689 102.684 13.5689V11.5689ZM100.779 12.0982C100.183 12.4907 99.7853 13.0917 99.7853 13.8601H101.785C101.785 13.8455 101.787 13.841 101.786 13.8433C101.786 13.8442 101.786 13.8456 101.785 13.8472C101.785 13.8479 101.784 13.8485 101.784 13.849C101.784 13.8495 101.784 13.8497 101.784 13.8496C101.784 13.8496 101.785 13.8481 101.787 13.8449C101.79 13.8417 101.794 13.8366 101.801 13.8297C101.815 13.8159 101.839 13.7946 101.879 13.7683L100.779 12.0982ZM99.7853 13.8601C99.7853 14.4723 100.029 15.0249 100.513 15.4242L101.786 13.8812C101.777 13.8739 101.775 13.871 101.777 13.8733C101.779 13.8758 101.782 13.8806 101.785 13.8867C101.788 13.8926 101.788 13.8956 101.788 13.8933C101.787 13.8907 101.785 13.8803 101.785 13.8601H99.7853ZM100.513 15.4242C100.933 15.7703 101.503 15.9781 102.096 16.1181L102.556 14.1717C102.066 14.056 101.852 13.9357 101.786 13.8812L100.513 15.4242ZM102.102 16.1195L103.662 16.4775L104.109 14.5282L102.55 14.1702L102.102 16.1195ZM103.66 16.4772C104.467 16.6636 104.943 16.9248 105.205 17.182L106.606 15.7541C105.981 15.142 105.111 14.7597 104.111 14.5285L103.66 16.4772ZM105.205 17.182C105.433 17.4054 105.57 17.7009 105.57 18.1619H107.57C107.57 17.2338 107.264 16.4 106.606 15.7541L105.205 17.182ZM105.57 18.1619C105.57 18.5418 105.465 18.856 105.255 19.1391L106.862 20.3296C107.334 19.6923 107.57 18.9582 107.57 18.1619H105.57ZM105.254 19.1404C105.039 19.432 104.72 19.688 104.251 19.8894L105.041 21.727C105.782 21.4086 106.405 20.9487 106.863 20.3283L105.254 19.1404ZM104.249 19.8904C103.797 20.086 103.24 20.1982 102.556 20.1982V22.1982C103.457 22.1982 104.294 22.0504 105.043 21.726L104.249 19.8904ZM102.556 20.1982C101.594 20.1982 100.909 19.9934 100.424 19.6661L99.3055 21.3239C100.21 21.9342 101.319 22.1982 102.556 22.1982V20.1982ZM100.428 19.6685C99.9671 19.3548 99.683 18.9238 99.5704 18.3031L97.6025 18.66C97.8053 19.7779 98.3735 20.6893 99.302 21.3216L100.428 19.6685ZM98.737 19.4701L100.584 19.1889L100.283 17.2117L98.436 17.4929L98.737 19.4701ZM99.4612 18.4327C99.6251 19.1187 99.986 19.7094 100.575 20.1162L101.711 18.4704C101.585 18.3829 101.473 18.2449 101.406 17.9679L99.4612 18.4327ZM100.582 20.1208C101.152 20.5078 101.833 20.6577 102.543 20.6577V18.6577C102.103 18.6577 101.85 18.5647 101.705 18.4658L100.582 20.1208ZM102.543 20.6577C103.299 20.6577 104.021 20.5015 104.615 20.0896L103.476 18.4459C103.32 18.5539 103.04 18.6577 102.543 18.6577V20.6577ZM104.621 20.0852C105.199 19.6782 105.608 19.0774 105.608 18.3026H103.608C103.608 18.3087 103.607 18.3126 103.607 18.3147C103.607 18.3167 103.607 18.3176 103.607 18.3178C103.607 18.318 103.606 18.3183 103.606 18.319C103.606 18.3197 103.605 18.3216 103.603 18.3248C103.597 18.3362 103.566 18.3822 103.469 18.4503L104.621 20.0852ZM105.608 18.3026C105.608 17.7096 105.371 17.1842 104.935 16.7886L103.591 18.2697C103.603 18.2808 103.608 18.2877 103.61 18.2896C103.611 18.2913 103.61 18.2902 103.608 18.2866C103.607 18.2831 103.606 18.2808 103.606 18.2813C103.606 18.2821 103.608 18.2886 103.608 18.3026H105.608ZM104.941 16.7948C104.534 16.4182 103.994 16.2064 103.442 16.081L102.999 18.0312C103.385 18.1188 103.539 18.2225 103.584 18.2634L104.941 16.7948ZM103.435 16.0793L101.773 15.715L101.345 17.6686L103.007 18.0329L103.435 16.0793ZM101.781 15.7168C100.968 15.5315 100.5 15.2641 100.247 15.0011L98.8057 16.3881C99.4303 17.0371 100.317 17.4344 101.337 17.6668L101.781 15.7168ZM100.25 15.0046C100.013 14.7556 99.8741 14.4349 99.8741 13.9624H97.8741C97.8741 14.8876 98.1703 15.7216 98.8023 16.3846L100.25 15.0046ZM99.8741 13.9624C99.8741 13.5823 99.9757 13.2883 100.162 13.0385L98.558 11.8436C98.0964 12.4631 97.8741 13.1833 97.8741 13.9624H99.8741ZM100.162 13.0385C100.365 12.7654 100.662 12.5287 101.094 12.3449L100.311 10.5045C99.6008 10.8065 99.0023 11.2473 98.558 11.8436L100.162 13.0385ZM101.099 12.3424C101.524 12.1586 102.039 12.054 102.665 12.054V10.054C101.816 10.054 101.022 10.1965 100.305 10.507L101.099 12.3424ZM102.665 12.054C103.591 12.054 104.188 12.2556 104.568 12.5423L105.773 10.9463C104.934 10.3125 103.86 10.054 102.665 10.054V12.054ZM104.571 12.545C104.99 12.8584 105.268 13.2709 105.41 13.8264L107.347 13.3312C107.097 12.3527 106.569 11.5422 105.769 10.9436L104.571 12.545ZM106.843 9.60938H105.843V10.6094H106.843V9.60938ZM106.843 7.90909V6.90909H105.843V7.90909H106.843ZM116.975 7.90909H117.975V6.90909H116.975V7.90909ZM116.975 9.60938V10.6094H117.975V9.60938H116.975ZM112.89 9.60938V8.60938H111.89V9.60938H112.89ZM112.89 21V22H113.89V21H112.89ZM110.922 21H109.922V22H110.922V21ZM110.922 9.60938H111.922V8.60938H110.922V9.60938ZM107.843 9.60938V7.90909H105.843V9.60938H107.843ZM106.843 8.90909H116.975V6.90909H106.843V8.90909ZM115.975 7.90909V9.60938H117.975V7.90909H115.975ZM116.975 8.60938H112.89V10.6094H116.975V8.60938ZM111.89 9.60938V21H113.89V9.60938H111.89ZM112.89 20H110.922V22H112.89V20ZM111.922 21V9.60938H109.922V21H111.922ZM110.922 8.60938H106.843V10.6094H110.922V8.60938ZM119.369 20.5781L118.853 21.4352L118.86 21.4388L119.369 20.5781ZM117.758 18.8203L116.861 19.2635L116.864 19.2695L117.758 18.8203ZM117.758 13.4957L116.861 13.0525L116.859 13.0565L117.758 13.4957ZM119.343 11.6996L118.809 10.854L118.807 10.8555L119.343 11.6996ZM123.344 11.3288L123.677 10.3857L123.344 11.3288ZM124.744 12.1918L124.056 12.9173V12.9173L124.744 12.1918ZM125.722 13.7195L124.788 14.0755L124.789 14.0776L125.722 13.7195ZM126.08 16.6662V17.6662H127.08V16.6662H126.08ZM118.276 16.6662H117.276V17.6662H118.276V16.6662ZM118.276 15.2344V14.2344H117.276V15.2344H118.276ZM124.207 15.2344V16.2344H125.207V15.2344H124.207ZM123.901 13.8984L123.014 14.361L123.016 14.365L123.901 13.8984ZM123.038 12.9716L122.513 13.8229L122.517 13.8256L123.038 12.9716ZM120.34 13.0291L120.889 13.8653L120.891 13.8639L120.34 13.0291ZM119.42 14.0518L118.531 13.5939L118.529 13.5974L119.42 14.0518ZM119.445 18.2067L118.551 18.6539L118.554 18.6605L119.445 18.2067ZM120.423 19.2614L119.921 20.1258L119.927 20.1296L120.423 19.2614ZM122.878 19.4659L123.202 20.4119L123.214 20.4077L122.878 19.4659ZM123.651 18.9929L122.958 18.2718L123.651 18.9929ZM124.15 18.2195L124.327 17.2353L123.506 17.0874L123.214 17.8683L124.15 18.2195ZM125.959 18.5455L126.924 18.8079L127.21 17.7549L126.136 17.5613L125.959 18.5455ZM125.179 19.9453L124.449 19.2619L124.449 19.2622L125.179 19.9453ZM123.779 20.8722L124.142 21.804L124.146 21.8026L123.779 20.8722ZM121.868 20.1982C121.045 20.1982 120.395 20.0235 119.878 19.7174L118.86 21.4388C119.74 21.9594 120.756 22.1982 121.868 22.1982V20.1982ZM119.884 19.7211C119.358 19.4051 118.949 18.9638 118.651 18.3711L116.864 19.2695C117.325 20.1854 117.99 20.9159 118.853 21.4352L119.884 19.7211ZM118.654 18.3771C118.36 17.7817 118.195 17.0505 118.195 16.1548H116.195C116.195 17.2961 116.406 18.3419 116.861 19.2635L118.654 18.3771ZM118.195 16.1548C118.195 15.2745 118.359 14.543 118.656 13.9349L116.859 13.0565C116.407 13.9826 116.195 15.0238 116.195 16.1548H118.195ZM118.654 13.939C118.958 13.3247 119.366 12.8694 119.879 12.5437L118.807 10.8555C117.965 11.3905 117.316 12.1327 116.861 13.0525L118.654 13.939ZM119.877 12.5452C120.379 12.2284 120.985 12.054 121.734 12.054V10.054C120.658 10.054 119.671 10.3099 118.809 10.854L119.877 12.5452ZM121.734 12.054C122.175 12.054 122.599 12.1266 123.012 12.272L123.677 10.3857C123.05 10.1646 122.4 10.054 121.734 10.054V12.054ZM123.012 12.272C123.395 12.4069 123.741 12.6187 124.056 12.9173L125.432 11.4662C124.921 10.9808 124.334 10.6172 123.677 10.3857L123.012 12.272ZM124.056 12.9173C124.343 13.1895 124.593 13.5646 124.788 14.0755L126.657 13.3635C126.374 12.6215 125.972 11.9781 125.432 11.4662L124.056 12.9173ZM124.789 14.0776C124.971 14.5541 125.08 15.1817 125.08 15.9886H127.08C127.08 15.0143 126.95 14.1291 126.656 13.3613L124.789 14.0776ZM125.08 15.9886V16.6662H127.08V15.9886H125.08ZM126.08 15.6662H118.276V17.6662H126.08V15.6662ZM119.276 16.6662V15.2344H117.276V16.6662H119.276ZM118.276 16.2344H124.207V14.2344H118.276V16.2344ZM125.207 15.2344C125.207 14.593 125.076 13.9834 124.785 13.4319L123.016 14.365C123.134 14.5891 123.207 14.8701 123.207 15.2344H125.207ZM124.787 13.4359C124.5 12.8856 124.087 12.44 123.558 12.1176L122.517 13.8256C122.73 13.9549 122.892 14.1272 123.014 14.361L124.787 13.4359ZM123.562 12.1203C123.016 11.7835 122.398 11.6328 121.746 11.6328V13.6328C122.084 13.6328 122.327 13.708 122.513 13.8229L123.562 12.1203ZM121.746 11.6328C121.038 11.6328 120.373 11.8098 119.79 12.1943L120.891 13.8639C121.109 13.72 121.381 13.6328 121.746 13.6328V11.6328ZM119.792 12.1929C119.251 12.5476 118.827 13.0189 118.531 13.5939L120.309 14.5098C120.447 14.241 120.637 14.0305 120.889 13.8653L119.792 12.1929ZM118.529 13.5974C118.241 14.1622 118.1 14.7727 118.1 15.4134H120.1C120.1 15.0739 120.173 14.7768 120.311 14.5063L118.529 13.5974ZM118.1 15.4134V16.532H120.1V15.4134H118.1ZM118.1 16.532C118.1 17.302 118.235 18.0219 118.551 18.6539L120.34 17.7595C120.195 17.471 120.1 17.0745 120.1 16.532H118.1ZM118.554 18.6605C118.87 19.2797 119.325 19.7794 119.921 20.1258L120.926 18.3969C120.686 18.2575 120.49 18.0541 120.336 17.7529L118.554 18.6605ZM119.927 20.1296C120.519 20.4676 121.183 20.6193 121.887 20.6193V18.6193C121.475 18.6193 121.163 18.5324 120.919 18.3931L119.927 20.1296ZM121.887 20.6193C122.344 20.6193 122.785 20.5548 123.202 20.4119L122.554 18.52C122.374 18.5816 122.155 18.6193 121.887 18.6193V20.6193ZM123.214 20.4077C123.639 20.2561 124.02 20.0257 124.344 19.714L122.958 18.2718C122.848 18.3777 122.714 18.4627 122.542 18.5242L123.214 20.4077ZM124.344 19.714C124.678 19.3928 124.923 19.005 125.086 18.5706L123.214 17.8683C123.146 18.0476 123.059 18.1754 122.958 18.2718L124.344 19.714ZM123.973 19.2036L125.781 19.5296L126.136 17.5613L124.327 17.2353L123.973 19.2036ZM124.994 18.283C124.892 18.6593 124.712 18.9811 124.449 19.2619L125.909 20.6287C126.396 20.1084 126.736 19.497 126.924 18.8079L124.994 18.283ZM124.449 19.2622C124.19 19.5383 123.853 19.7683 123.413 19.9418L124.146 21.8026C124.83 21.5328 125.426 21.145 125.909 20.6285L124.449 19.2622ZM123.416 19.9403C122.994 20.1047 122.483 20.1982 121.868 20.1982V22.1982C122.684 22.1982 123.448 22.0742 124.142 21.804L123.416 19.9403ZM129.882 20.5526L129.344 21.3958L129.351 21.3997L129.882 20.5526ZM128.322 13.4957L129.22 13.9369L129.221 13.9349L128.322 13.4957ZM129.907 11.6996L129.374 10.854L129.374 10.854L129.907 11.6996ZM134.312 11.4695L133.883 12.3729L133.888 12.3755L134.312 11.4695ZM135.724 12.62L134.914 13.2065L134.918 13.2111L135.724 12.62ZM136.37 14.3523V15.3523H137.478L137.365 14.2496L136.37 14.3523ZM134.51 14.3523L133.534 14.5692L133.708 15.3523H134.51V14.3523ZM133.807 13.1634L133.131 13.9002L133.135 13.9041L133.807 13.1634ZM130.949 13.0866L131.522 13.9063L131.524 13.9051L130.949 13.0866ZM130.023 14.2756L130.94 14.6732L130.941 14.6704L130.023 14.2756ZM130.016 17.9446L130.939 17.5589L130.016 17.9446ZM130.937 19.1527L130.352 19.9641L130.356 19.967L130.937 19.1527ZM133.334 19.3828L133.743 20.295L133.749 20.2923L133.334 19.3828ZM134.081 18.8011L133.306 18.17L133.299 18.1781L134.081 18.8011ZM134.51 17.8935V16.8935H133.713L133.535 17.6703L134.51 17.8935ZM136.37 17.8935L137.364 18.0002L137.483 16.8935H136.37V17.8935ZM135.75 19.5938L136.572 20.163L135.75 19.5938ZM134.363 20.7699L133.921 19.8728L133.918 19.8741L134.363 20.7699ZM132.336 20.1982C131.541 20.1982 130.914 20.0197 130.413 19.7054L129.351 21.3997C130.222 21.9462 131.231 22.1982 132.336 22.1982V20.1982ZM130.419 19.7093C129.902 19.3796 129.501 18.9264 129.211 18.3233L127.408 19.1895C127.851 20.112 128.498 20.8562 129.344 21.3958L130.419 19.7093ZM129.211 18.3233C128.919 17.7161 128.76 16.9945 128.76 16.1357H126.76C126.76 17.2456 126.967 18.2712 127.408 19.1895L129.211 18.3233ZM128.76 16.1357C128.76 15.2651 128.923 14.5406 129.22 13.9369L127.425 13.0546C126.972 13.9765 126.76 15.0119 126.76 16.1357H128.76ZM129.221 13.9349C129.519 13.3243 129.926 12.8706 130.441 12.5452L129.374 10.854C128.526 11.3893 127.875 12.1331 127.424 13.0565L129.221 13.9349ZM130.441 12.5452C130.941 12.2298 131.553 12.054 132.317 12.054V10.054C131.232 10.054 130.238 10.3085 129.374 10.854L130.441 12.5452ZM132.317 12.054C132.938 12.054 133.452 12.1686 133.883 12.3729L134.74 10.566C134.003 10.2163 133.189 10.054 132.317 10.054V12.054ZM133.888 12.3755C134.327 12.5804 134.662 12.8576 134.914 13.2065L136.534 12.0335C136.071 11.3938 135.464 10.9039 134.735 10.5634L133.888 12.3755ZM134.918 13.2111C135.166 13.5503 135.324 13.9558 135.375 14.455L137.365 14.2496C137.28 13.4277 137.007 12.6784 136.531 12.029L134.918 13.2111ZM136.37 13.3523H134.51V15.3523H136.37V13.3523ZM135.486 14.1353C135.337 13.4629 134.99 12.8867 134.478 12.4226L133.135 13.9041C133.356 14.1048 133.478 14.3212 133.534 14.5692L135.486 14.1353ZM134.483 12.4266C133.895 11.8868 133.146 11.6648 132.349 11.6648V13.6648C132.771 13.6648 132.994 13.7751 133.131 13.9001L134.483 12.4266ZM132.349 11.6648C131.63 11.6648 130.959 11.8583 130.375 12.2682L131.524 13.9051C131.741 13.7525 132.003 13.6648 132.349 13.6648V11.6648ZM130.377 12.267C129.804 12.6668 129.387 13.222 129.104 13.8807L130.941 14.6704C131.101 14.2978 131.302 14.0604 131.522 13.9063L130.377 12.267ZM129.105 13.878C128.817 14.5424 128.69 15.2889 128.69 16.0909H130.69C130.69 15.4952 130.785 15.0315 130.94 14.6732L129.105 13.878ZM128.69 16.0909C128.69 16.9048 128.813 17.66 129.094 18.3303L130.939 17.5589C130.784 17.1894 130.69 16.7088 130.69 16.0909H128.69ZM129.094 18.3303C129.371 18.9939 129.784 19.5549 130.352 19.9641L131.521 18.3413C131.297 18.1795 131.096 17.9351 130.939 17.5589L129.094 18.3303ZM130.356 19.967C130.943 20.3854 131.622 20.581 132.349 20.581V18.581C131.994 18.581 131.731 18.491 131.517 18.3384L130.356 19.967ZM132.349 20.581C132.835 20.581 133.305 20.4918 133.743 20.295L132.924 18.4706C132.774 18.5381 132.588 18.581 132.349 18.581V20.581ZM133.749 20.2923C134.188 20.092 134.563 19.8011 134.864 19.4242L133.299 18.1781C133.199 18.304 133.076 18.4009 132.918 18.4733L133.749 20.2923ZM134.857 19.4322C135.17 19.0483 135.374 18.6017 135.485 18.1166L133.535 17.6703C133.484 17.8926 133.403 18.0511 133.306 18.17L134.857 19.4322ZM134.51 18.8935H136.37V16.8935H134.51V18.8935ZM135.376 17.7867C135.324 18.2647 135.173 18.6707 134.928 19.0245L136.572 20.163C137.017 19.5197 137.279 18.7922 137.364 18.0002L135.376 17.7867ZM134.928 19.0245C134.686 19.3741 134.358 19.6574 133.921 19.8728L134.805 21.6669C135.526 21.3113 136.124 20.8105 136.572 20.163L134.928 19.0245ZM133.918 19.8741C133.507 20.0783 132.989 20.1982 132.336 20.1982V22.1982C133.235 22.1982 134.068 22.0325 134.807 21.6656L133.918 19.8741ZM140.325 21V22H141.325V21H140.325ZM138.414 21H137.414V22H138.414V21ZM138.414 7.90909V6.90909H137.414V7.90909H138.414ZM140.299 7.90909H141.299V6.90909H140.299V7.90909ZM140.299 12.7798H139.299V13.7798H140.299V12.7798ZM140.421 12.7798V13.7798H141.076L141.338 13.1791L140.421 12.7798ZM141.475 11.5206L140.926 10.6851V10.6851L141.475 11.5206ZM145.093 11.4695L144.611 12.3454L144.614 12.3471L145.093 11.4695ZM146.27 12.7095L145.376 13.1595L145.381 13.1678L146.27 12.7095ZM146.691 21V22H147.691V21H146.691ZM144.78 21H143.78V22H144.78V21ZM144.224 13.3104L143.49 13.9896L143.494 13.9935L144.224 13.3104ZM141.463 12.9972L140.99 12.1157L140.986 12.1181L141.463 12.9972ZM140.625 13.8409L139.75 13.3578L139.748 13.3613L140.625 13.8409ZM139.325 15.1705V21H141.325V15.1705H139.325ZM140.325 20H138.414V22H140.325V20ZM139.414 21V7.90909H137.414V21H139.414ZM138.414 8.90909H140.299V6.90909H138.414V8.90909ZM139.299 7.90909V12.7798H141.299V7.90909H139.299ZM140.299 13.7798H140.421V11.7798H140.299V13.7798ZM141.338 13.1791C141.492 12.8253 141.717 12.5585 142.025 12.3561L140.926 10.6851C140.288 11.1049 139.81 11.6776 139.504 12.3806L141.338 13.1791ZM142.025 12.3561C142.287 12.1837 142.696 12.054 143.329 12.054V10.054C142.437 10.054 141.61 10.2354 140.926 10.6851L142.025 12.3561ZM143.329 12.054C143.863 12.054 144.28 12.1628 144.611 12.3454L145.576 10.5936C144.902 10.2221 144.142 10.054 143.329 10.054V12.054ZM144.614 12.3471C144.931 12.5203 145.185 12.7785 145.376 13.1595L147.163 12.2595C146.801 11.5411 146.27 10.9726 145.573 10.5918L144.614 12.3471ZM145.381 13.1678C145.569 13.5323 145.691 14.0453 145.691 14.755H147.691C147.691 13.8283 147.533 12.9776 147.158 12.2512L145.381 13.1678ZM145.691 14.755V21H147.691V14.755H145.691ZM146.691 20H144.78V22H146.691V20ZM145.78 21V14.9851H143.78V21H145.78ZM145.78 14.9851C145.78 14.0962 145.549 13.2627 144.954 12.6272L143.494 13.9935C143.641 14.1506 143.78 14.4336 143.78 14.9851H145.78ZM144.958 12.6311C144.359 11.9838 143.553 11.7095 142.677 11.7095V13.7095C143.122 13.7095 143.348 13.8358 143.49 13.9896L144.958 12.6311ZM142.677 11.7095C142.08 11.7095 141.509 11.8377 140.99 12.1157L141.935 13.8786C142.132 13.7731 142.371 13.7095 142.677 13.7095V11.7095ZM140.986 12.1181C140.455 12.4059 140.042 12.8289 139.75 13.3578L141.501 14.324C141.618 14.1115 141.763 13.972 141.939 13.8763L140.986 12.1181ZM139.748 13.3613C139.45 13.9067 139.325 14.5234 139.325 15.1705H141.325C141.325 14.7778 141.4 14.5081 141.503 14.3205L139.748 13.3613Z" fill="black"/>
<path d="M47.0426 18.0597L47.9332 18.5144L47.934 18.5129L47.0426 18.0597ZM44.9396 20.3736L45.4578 21.2289L45.4589 21.2282L44.9396 20.3736ZM38.88 20.3736L38.3588 21.2271L38.3637 21.23L38.88 20.3736ZM36.7834 18.0533L37.6748 17.6L36.7834 18.0533ZM36.7834 10.8558L37.674 11.3106L37.6748 11.3091L36.7834 10.8558ZM38.88 8.5419L39.3981 9.39721L39.3993 9.3965L38.88 8.5419ZM44.9396 8.5419L44.4185 9.3954L44.4233 9.39831L44.9396 8.5419ZM47.0426 10.8558L46.1512 11.3091L46.152 11.3106L47.0426 10.8558ZM45.3359 11.7635L44.4292 12.1852L44.4322 12.1916L45.3359 11.7635ZM43.9297 10.1016L43.3904 10.9438L43.3975 10.9482L43.9297 10.1016ZM39.8963 10.1016L40.4312 10.9465L40.4355 10.9437L39.8963 10.1016ZM38.4901 11.7635L37.5854 11.3374L37.5843 11.3397L38.4901 11.7635ZM38.4901 17.152L37.5833 17.5737L37.5863 17.5801L38.4901 17.152ZM39.8963 18.8139L39.3571 19.6561L39.3614 19.6588L39.8963 18.8139ZM43.9297 18.8139L44.4646 19.6588L44.4662 19.6578L43.9297 18.8139ZM45.3359 17.152L44.4312 16.7259L44.4302 16.7282L45.3359 17.152ZM46.8097 14.4545C46.8097 15.7317 46.5762 16.7707 46.1512 17.6064L47.934 18.5129C48.5318 17.3372 48.8097 15.9729 48.8097 14.4545H46.8097ZM46.152 17.6049C45.718 18.4547 45.14 19.0817 44.4203 19.519L45.4589 21.2282C46.5205 20.5831 47.3445 19.6674 47.9332 18.5144L46.152 17.6049ZM44.4215 19.5183C43.7053 19.9521 42.8797 20.179 41.9162 20.179V22.179C43.2112 22.179 44.4013 21.8689 45.4578 21.2289L44.4215 19.5183ZM41.9162 20.179C40.9477 20.179 40.1172 19.9518 39.3963 19.5172L38.3637 21.23C39.424 21.8692 40.6176 22.179 41.9162 22.179V20.179ZM39.4011 19.5201C38.6864 19.0837 38.1097 18.4554 37.6748 17.6L35.892 18.5065C36.4798 19.6625 37.3008 20.581 38.3589 21.2271L39.4011 19.5201ZM37.6748 17.6C37.2496 16.7639 37.0163 15.7268 37.0163 14.4545H35.0163C35.0163 15.9692 35.2944 17.3312 35.892 18.5065L37.6748 17.6ZM37.0163 14.4545C37.0163 13.1773 37.2499 12.1411 37.674 11.3106L35.8928 10.401C35.2941 11.5734 35.0163 12.9364 35.0163 14.4545H37.0163ZM37.6748 11.3091C38.1094 10.4543 38.6853 9.82902 39.3981 9.39721L38.3619 7.68659C37.302 8.32865 36.4801 9.24599 35.892 10.4026L37.6748 11.3091ZM39.3993 9.3965C40.1198 8.95869 40.9492 8.73011 41.9162 8.73011V6.73011C40.6161 6.73011 39.4214 7.04273 38.3607 7.68731L39.3993 9.3965ZM41.9162 8.73011C42.8782 8.73011 43.7027 8.95833 44.4185 9.39539L45.4607 7.68842C44.4038 7.04309 43.2127 6.73011 41.9162 6.73011V8.73011ZM44.4233 9.39831C45.1401 9.83043 45.7172 10.4555 46.1512 11.3091L47.934 10.4026C47.3453 9.24476 46.5204 8.32724 45.4559 7.6855L44.4233 9.39831ZM46.152 11.3106C46.5761 12.1411 46.8097 13.1773 46.8097 14.4545H48.8097C48.8097 12.9364 48.5319 11.5734 47.9332 10.401L46.152 11.3106ZM46.8537 14.4545C46.8537 13.2866 46.6652 12.2337 46.2397 11.3354L44.4322 12.1916C44.697 12.7507 44.8537 13.4918 44.8537 14.4545H46.8537ZM46.2427 11.3418C45.8327 10.4604 45.2446 9.74696 44.4619 9.25493L43.3975 10.9482C43.8079 11.2062 44.1573 11.6007 44.4292 12.1852L46.2427 11.3418ZM44.4689 9.2594C43.7048 8.77015 42.8441 8.53267 41.9162 8.53267V10.5327C42.4883 10.5327 42.9699 10.6745 43.3905 10.9437L44.4689 9.2594ZM41.9162 8.53267C40.9853 8.53267 40.1221 8.76955 39.3571 9.2594L40.4355 10.9437C40.8551 10.6751 41.3386 10.5327 41.9162 10.5327V8.53267ZM39.3614 9.25665C38.5848 9.74834 37.9986 10.4599 37.5854 11.3374L39.3948 12.1895C39.6718 11.6012 40.0232 11.2048 40.4312 10.9465L39.3614 9.25665ZM37.5843 11.3397C37.1646 12.2368 36.9787 13.2881 36.9787 14.4545H38.9787C38.9787 13.4904 39.1337 12.7476 39.3958 12.1872L37.5843 11.3397ZM36.9787 14.4545C36.9787 15.6213 37.1647 16.6737 37.5833 17.5737L39.3968 16.7303C39.1336 16.1644 38.9787 15.4184 38.9787 14.4545H36.9787ZM37.5863 17.5801C37.9997 18.4529 38.5847 19.1616 39.3571 19.6561L40.4355 17.9718C40.0232 17.7078 39.6707 17.3085 39.3938 16.7239L37.5863 17.5801ZM39.3614 19.6588C40.126 20.1429 40.9875 20.3764 41.9162 20.3764V18.3764C41.3363 18.3764 40.8513 18.235 40.4312 17.969L39.3614 19.6588ZM41.9162 20.3764C42.8418 20.3764 43.701 20.1423 44.4646 19.6588L43.3948 17.969C42.9737 18.2356 42.4906 18.3764 41.9162 18.3764V20.3764ZM44.4662 19.6578C45.2446 19.1629 45.8316 18.4524 46.2417 17.5757L44.4302 16.7282C44.1585 17.309 43.8079 17.7064 43.3932 17.97L44.4662 19.6578ZM46.2406 17.578C46.6651 16.6768 46.8537 15.6228 46.8537 14.4545H44.8537C44.8537 15.417 44.6971 16.1613 44.4312 16.7259L46.2406 17.578ZM50.1188 24.6818H49.1188V25.6818H50.1188V24.6818ZM50.1188 11.1818V10.1818H49.1188V11.1818H50.1188ZM51.9853 11.1818H52.9853V10.1818H51.9853V11.1818ZM51.9853 12.7734H50.9853V13.7734H51.9853V12.7734ZM52.1451 12.7734V13.7734H52.7407L53.0244 13.2497L52.1451 12.7734ZM52.6245 12.0639L53.4138 12.6779V12.6779L52.6245 12.0639ZM53.4938 11.3608L53.9691 12.2407L53.9769 12.2364L53.4938 11.3608ZM57.0861 11.6548L56.5448 12.4956H56.5448L57.0861 11.6548ZM58.5499 13.3871L57.6445 13.8116L57.6465 13.8158L58.5499 13.3871ZM58.5563 18.8395L59.4617 19.2641L59.4626 19.2621L58.5563 18.8395ZM57.0989 20.5845L57.6469 21.421L57.6509 21.4183L57.0989 20.5845ZM53.5194 20.8913L53.0482 21.7734L53.0524 21.7756L53.5194 20.8913ZM52.6373 20.1882L53.4205 19.5666L52.6373 20.1882ZM52.1451 19.4723L53.0209 18.9897L52.7358 18.4723H52.1451V19.4723ZM52.03 19.4723V18.4723H51.03V19.4723H52.03ZM52.03 24.6818V25.6818H53.03V24.6818H52.03ZM52.2921 17.9062L51.3589 18.2657L52.2921 17.9062ZM53.1614 19.1271L52.5487 19.9175L52.5543 19.9217L53.1614 19.1271ZM55.9867 19.108L56.6061 19.8931L56.6114 19.8888L55.9867 19.108ZM56.856 17.8615L55.9219 17.5046L55.9194 17.5112L56.856 17.8615ZM56.8624 14.3459L55.9251 14.6945L55.9277 14.7012L56.8624 14.3459ZM55.9931 13.125L55.3791 13.9144L55.3834 13.9176L55.9931 13.125ZM53.1486 13.1058L52.5515 12.3037L52.5472 12.3069L53.1486 13.1058ZM52.2857 14.3011L53.2194 14.6591V14.6591L52.2857 14.3011ZM51.1188 24.6818V11.1818H49.1188V24.6818H51.1188ZM50.1188 12.1818H51.9853V10.1818H50.1188V12.1818ZM50.9853 11.1818V12.7734H52.9853V11.1818H50.9853ZM51.9853 13.7734H52.1451V11.7734H51.9853V13.7734ZM53.0244 13.2497C53.1001 13.11 53.2248 12.9209 53.4138 12.6779L51.8351 11.45C51.6065 11.7439 51.4117 12.0278 51.2658 12.2972L53.0244 13.2497ZM53.4138 12.6779C53.5197 12.5417 53.692 12.3903 53.9691 12.2406L53.0185 10.481C52.5541 10.7319 52.1468 11.0492 51.8351 11.45L53.4138 12.6779ZM53.9769 12.2364C54.1489 12.1415 54.454 12.054 54.964 12.054V10.054C54.2551 10.054 53.5802 10.171 53.0107 10.4852L53.9769 12.2364ZM54.964 12.054C55.5789 12.054 56.0956 12.2065 56.5448 12.4956L57.6275 10.814C56.8323 10.3021 55.9343 10.054 54.964 10.054V12.054ZM56.5448 12.4956C56.9896 12.782 57.3603 13.2056 57.6445 13.8116L59.4553 12.9625C59.0321 12.0601 58.427 11.3288 57.6275 10.814L56.5448 12.4956ZM57.6465 13.8158C57.926 14.4049 58.0868 15.1584 58.0868 16.1101H60.0868C60.0868 14.9396 59.8897 13.8778 59.4533 12.9583L57.6465 13.8158ZM58.0868 16.1101C58.0868 17.063 57.9277 17.8212 57.65 18.4169L59.4626 19.2621C59.8922 18.3408 60.0868 17.2793 60.0868 16.1101H58.0868ZM57.6509 18.4149C57.3652 19.0241 56.9932 19.4552 56.5469 19.7507L57.6509 21.4183C58.4404 20.8957 59.04 20.1634 59.4617 19.2641L57.6509 18.4149ZM56.5509 19.7481C56.1078 20.0383 55.5959 20.1918 54.9831 20.1918V22.1918C55.9556 22.1918 56.8542 21.9404 57.6469 21.421L56.5509 19.7481ZM54.9831 20.1918C54.4891 20.1918 54.1765 20.1075 53.9863 20.0071L53.0524 21.7756C53.6207 22.0757 54.284 22.1918 54.9831 22.1918V20.1918ZM53.9905 20.0093C53.7081 19.8584 53.5306 19.7053 53.4205 19.5666L51.854 20.8099C52.17 21.2081 52.5806 21.5237 53.0482 21.7734L53.9905 20.0093ZM53.4205 19.5666C53.2285 19.3246 53.1002 19.1336 53.0209 18.9897L51.2692 19.9549C51.42 20.2286 51.6199 20.5149 51.854 20.8099L53.4205 19.5666ZM52.1451 18.4723H52.03V20.4723H52.1451V18.4723ZM51.03 19.4723V24.6818H53.03V19.4723H51.03ZM52.03 23.6818H50.1188V25.6818H52.03V23.6818ZM50.9917 16.0909C50.9917 16.8758 51.1053 17.6074 51.3589 18.2657L53.2252 17.5468C53.0783 17.1654 52.9917 16.6867 52.9917 16.0909H50.9917ZM51.3589 18.2657C51.614 18.928 52.0035 19.4947 52.5487 19.9174L53.7741 18.3368C53.5608 18.1714 53.3707 17.9243 53.2252 17.5468L51.3589 18.2657ZM52.5543 19.9217C53.1336 20.3644 53.8205 20.5618 54.5549 20.5618V18.5618C54.1898 18.5618 53.9477 18.4694 53.7685 18.3325L52.5543 19.9217ZM54.5549 20.5618C55.311 20.5618 56.0173 20.3575 56.606 19.8931L55.3673 18.3228C55.189 18.4635 54.9408 18.5618 54.5549 18.5618V20.5618ZM56.6114 19.8888C57.1546 19.4542 57.5424 18.881 57.7926 18.2118L55.9194 17.5112C55.7776 17.8903 55.5858 18.148 55.362 18.3271L56.6114 19.8888ZM57.7901 18.2184C58.0407 17.5628 58.1564 16.8488 58.1564 16.0909H56.1564C56.1564 16.6455 56.0719 17.1119 55.9219 17.5046L57.7901 18.2184ZM58.1564 16.0909C58.1564 15.3425 58.0431 14.6376 57.7971 13.9905L55.9277 14.7012C56.0737 15.0855 56.1564 15.5439 56.1564 16.0909H58.1564ZM57.7997 13.9973C57.5509 13.3284 57.1572 12.7588 56.6028 12.3324L55.3834 13.9176C55.6045 14.0878 55.7904 14.3321 55.9251 14.6945L57.7997 13.9973ZM56.607 12.3356C56.0172 11.8769 55.3101 11.6776 54.5549 11.6776V13.6776C54.9502 13.6776 55.2019 13.7765 55.3791 13.9144L56.607 12.3356ZM54.5549 11.6776C53.8212 11.6776 53.134 11.87 52.5515 12.3037L53.7458 13.908C53.9303 13.7706 54.1806 13.6776 54.5549 13.6776V11.6776ZM52.5472 12.3069C51.9961 12.7218 51.6046 13.284 51.3519 13.9432L53.2194 14.6591C53.3588 14.2955 53.5426 14.0609 53.75 13.9047L52.5472 12.3069ZM51.3519 13.9432C51.1029 14.593 50.9917 15.3156 50.9917 16.0909H52.9917C52.9917 15.5026 53.0765 15.032 53.2194 14.6591L51.3519 13.9432ZM65.8113 11.1818H66.8113V10.1818H65.8113V11.1818ZM65.8113 12.7159V13.7159H66.8113V12.7159H65.8113ZM60.4483 12.7159H59.4483V13.7159H60.4483V12.7159ZM60.4483 11.1818V10.1818H59.4483V11.1818H60.4483ZM61.8865 8.82955V7.82955H60.8865V8.82955H61.8865ZM63.7978 8.82955H64.7978V7.82955H63.7978V8.82955ZM63.964 18.9545L63.103 19.4633L63.1082 19.472L63.964 18.9545ZM64.3922 19.3317L64.0287 20.2633L64.0422 20.2685L64.0559 20.2734L64.3922 19.3317ZM65.3766 19.3956L65.5587 20.3789V20.3789L65.3766 19.3956ZM65.6451 19.3445L66.622 19.1309L66.4122 18.1712L65.4489 18.3639L65.6451 19.3445ZM65.9902 20.9233L66.3492 21.8566L67.1505 21.5484L66.9672 20.7097L65.9902 20.9233ZM65.5172 21.0511L65.3133 20.0722L65.3035 20.0742L65.2938 20.0764L65.5172 21.0511ZM64.7502 21.1278L64.7363 20.1279L64.7332 20.128L64.7502 21.1278ZM63.3439 20.8594L62.9478 21.7776L63.3439 20.8594ZM62.2892 19.9901L61.4642 20.5551V20.5551L62.2892 19.9901ZM64.8113 11.1818V12.7159H66.8113V11.1818H64.8113ZM65.8113 11.7159H60.4483V13.7159H65.8113V11.7159ZM61.4483 12.7159V11.1818H59.4483V12.7159H61.4483ZM60.4483 12.1818H65.8113V10.1818H60.4483V12.1818ZM61.8865 9.82955H63.7978V7.82955H61.8865V9.82955ZM62.7978 8.82955V18.1172H64.7978V8.82955H62.7978ZM62.7978 18.1172C62.7978 18.5562 62.8578 19.0483 63.103 19.4633L64.8249 18.4458C64.8415 18.4739 64.8323 18.4708 64.8202 18.4099C64.8084 18.3503 64.7978 18.2556 64.7978 18.1172H62.7978ZM63.1082 19.472C63.3161 19.8157 63.6203 20.1039 64.0287 20.2633L64.7558 18.4001C64.7789 18.4091 64.7999 18.4225 64.815 18.4358C64.829 18.4481 64.8289 18.4524 64.8197 18.4371L63.1082 19.472ZM64.0559 20.2734C64.3529 20.3795 64.6618 20.4276 64.9739 20.4276V18.4276C64.8684 18.4276 64.7895 18.4117 64.7286 18.3899L64.0559 20.2734ZM64.9739 20.4276C65.1707 20.4276 65.3684 20.4141 65.5587 20.3789L65.1945 18.4123C65.1547 18.4197 65.0839 18.4276 64.9739 18.4276V20.4276ZM65.5587 20.3789C65.6754 20.3573 65.7703 20.3392 65.8412 20.325L65.4489 18.3639C65.392 18.3753 65.3079 18.3913 65.1945 18.4123L65.5587 20.3789ZM64.6681 19.558L65.0133 21.1369L66.9672 20.7097L66.622 19.1309L64.6681 19.558ZM65.6313 19.99C65.5948 20.004 65.4982 20.0336 65.3133 20.0722L65.7212 22.0301C65.9453 21.9834 66.164 21.9279 66.3492 21.8566L65.6313 19.99ZM65.2938 20.0764C65.1816 20.1021 65.0018 20.1243 64.7363 20.1279L64.7641 22.1277C65.1122 22.1229 65.4437 22.0939 65.7406 22.0259L65.2938 20.0764ZM64.7332 20.128C64.3633 20.1343 64.0363 20.069 63.74 19.9412L62.9478 21.7776C63.5209 22.0248 64.1314 22.1385 64.7671 22.1277L64.7332 20.128ZM63.74 19.9412C63.4795 19.8288 63.2765 19.6618 63.1143 19.4251L61.4642 20.5551C61.839 21.1024 62.339 21.5149 62.9478 21.7776L63.74 19.9412ZM63.1143 19.4251C62.9851 19.2364 62.8865 18.9542 62.8865 18.5135H60.8865C60.8865 19.2575 61.0564 19.9597 61.4642 20.5551L63.1143 19.4251ZM62.8865 18.5135V8.82955H60.8865V18.5135H62.8865ZM67.9254 21H66.9254V22H67.9254V21ZM67.9254 11.1818V10.1818H66.9254V11.1818H67.9254ZM69.8366 11.1818H70.8366V10.1818H69.8366V11.1818ZM69.8366 21V22H70.8366V21H69.8366ZM68.0341 9.33452L67.3402 10.0546L67.3469 10.061L67.3536 10.0673L68.0341 9.33452ZM68.0341 7.72372L68.7211 8.45037L68.7215 8.45001L68.0341 7.72372ZM69.7408 7.72372L69.0469 8.4438L69.0535 8.45022L69.0603 8.45651L69.7408 7.72372ZM69.7408 9.33452L70.4278 10.0612L70.4282 10.0608L69.7408 9.33452ZM68.9254 21V11.1818H66.9254V21H68.9254ZM67.9254 12.1818H69.8366V10.1818H67.9254V12.1818ZM68.8366 11.1818V21H70.8366V11.1818H68.8366ZM69.8366 20H67.9254V22H69.8366V20ZM68.8906 8.6669C68.8049 8.6669 68.764 8.64766 68.7145 8.60172L67.3536 10.0673C67.7814 10.4646 68.3116 10.6669 68.8906 10.6669V8.6669ZM68.728 8.61444C68.6948 8.58242 68.6875 8.56502 68.6869 8.56372C68.6862 8.56205 68.6854 8.55998 68.6847 8.55624C68.6839 8.55234 68.6825 8.54379 68.6825 8.52912H66.6825C66.6825 9.12562 66.9204 9.65003 67.3402 10.0546L68.728 8.61444ZM68.6825 8.52912C68.6825 8.51249 68.684 8.50269 68.6849 8.49821C68.6858 8.49392 68.6866 8.49209 68.6869 8.49132C68.6873 8.49051 68.6886 8.48743 68.6928 8.48161C68.6971 8.47561 68.7056 8.46498 68.7211 8.45037L67.3471 6.99707C66.9181 7.40268 66.6825 7.93181 66.6825 8.52912H68.6825ZM68.7215 8.45001C68.772 8.40219 68.8106 8.38494 68.8906 8.38494V6.38494C68.3059 6.38494 67.7734 6.59355 67.3467 6.99743L68.7215 8.45001ZM68.8906 8.38494C68.9703 8.38494 69.0032 8.40173 69.0469 8.4438L70.4347 7.00364C70.0096 6.59401 69.4757 6.38494 68.8906 6.38494V8.38494ZM69.0603 8.45651C69.0765 8.47158 69.0854 8.48249 69.0899 8.48854C69.0941 8.49439 69.0953 8.49721 69.0954 8.4974C69.0955 8.49754 69.096 8.49847 69.0966 8.50164C69.0973 8.50501 69.0987 8.51364 69.0987 8.52912H71.0987C71.0987 7.92559 70.8561 7.39473 70.4212 6.99093L69.0603 8.45651ZM69.0987 8.52912C69.0987 8.54262 69.0975 8.55 69.0969 8.55279C69.0964 8.55541 69.0959 8.55659 69.0954 8.55764C69.0954 8.55776 69.0882 8.57529 69.0534 8.60822L70.4282 10.0608C70.8538 9.65799 71.0987 9.13181 71.0987 8.52912H69.0987ZM69.0538 8.60787C69.0112 8.64807 68.9761 8.6669 68.8906 8.6669V10.6669C69.4699 10.6669 70.0015 10.4641 70.4278 10.0612L69.0538 8.60787ZM72.4078 21H71.4078V22H72.4078V21ZM72.4078 11.1818V10.1818H71.4078V11.1818H72.4078ZM74.2424 11.1818H75.2424V10.1818H74.2424V11.1818ZM74.2424 12.7798H73.2424V13.7798H74.2424V12.7798ZM74.3638 12.7798V13.7798H75.0549L75.2992 13.1334L74.3638 12.7798ZM75.3674 11.5142L75.9132 12.3521L75.9185 12.3486L75.3674 11.5142ZM78.6848 11.5142L78.1156 12.3364L78.1193 12.3389L78.6848 11.5142ZM79.6756 12.7798L78.7461 13.1487L78.9966 13.7798H79.6756V12.7798ZM79.7779 12.7798V13.7798H80.4261L80.6908 13.188L79.7779 12.7798ZM80.8965 11.527L81.4162 12.3813L81.4214 12.3782L80.8965 11.527ZM84.9043 11.8913L84.1999 12.6011L84.2026 12.6038L84.9043 11.8913ZM85.7544 21V22H86.7544V21H85.7544ZM83.8432 21H82.8432V22H83.8432V21ZM83.2999 13.1506L83.9356 12.3786L83.2999 13.1506ZM80.5513 13.2784L81.2909 13.9515L81.2946 13.9474L80.5513 13.2784ZM80.0336 21V22H81.0336V21H80.0336ZM78.1287 21H77.1287V22H78.1287V21ZM77.6301 13.1889L76.9323 13.9051V13.9052L77.6301 13.1889ZM75.329 12.9908L75.8558 13.8408L75.859 13.8388L75.329 12.9908ZM74.5939 13.777L73.7203 13.2904L73.7156 13.2989L74.5939 13.777ZM74.3191 21V22H75.3191V21H74.3191ZM73.4078 21V11.1818H71.4078V21H73.4078ZM72.4078 12.1818H74.2424V10.1818H72.4078V12.1818ZM73.2424 11.1818V12.7798H75.2424V11.1818H73.2424ZM74.2424 13.7798H74.3638V11.7798H74.2424V13.7798ZM75.2992 13.1334C75.4322 12.7817 75.6348 12.5334 75.9132 12.3521L74.8216 10.6763C74.1709 11.1001 73.7046 11.6956 73.4284 12.4263L75.2992 13.1334ZM75.9185 12.3486C76.1941 12.1666 76.5511 12.054 77.0357 12.054V10.054C76.2248 10.054 75.4696 10.2482 74.8162 10.6798L75.9185 12.3486ZM77.0357 12.054C77.5334 12.054 77.8731 12.1685 78.1156 12.3364L79.254 10.692C78.6102 10.2463 77.8505 10.054 77.0357 10.054V12.054ZM78.1193 12.3389C78.392 12.5259 78.6014 12.7839 78.7461 13.1487L80.6051 12.411C80.3237 11.7019 79.8726 11.1161 79.2504 10.6895L78.1193 12.3389ZM79.6756 13.7798H79.7779V11.7798H79.6756V13.7798ZM80.6908 13.188C80.8387 12.8572 81.0703 12.5918 81.4162 12.3813L80.3768 10.6727C79.6999 11.0844 79.1858 11.6542 78.865 12.3716L80.6908 13.188ZM81.4214 12.3782C81.7488 12.1762 82.1693 12.054 82.7246 12.054V10.054C81.8652 10.054 81.0669 10.2471 80.3716 10.6758L81.4214 12.3782ZM82.7246 12.054C83.387 12.054 83.8486 12.2525 84.1999 12.6011L85.6087 11.1815C84.835 10.4137 83.8435 10.054 82.7246 10.054V12.054ZM84.2026 12.6038C84.5111 12.9076 84.7544 13.4466 84.7544 14.4162H86.7544C86.7544 13.1358 86.4311 11.9915 85.606 11.1789L84.2026 12.6038ZM84.7544 14.4162V21H86.7544V14.4162H84.7544ZM85.7544 20H83.8432V22H85.7544V20ZM84.8432 21V14.5952H82.8432V21H84.8432ZM84.8432 14.5952C84.8432 13.7615 84.6128 12.9364 83.9356 12.3786L82.6642 13.9225C82.7114 13.9614 82.8432 14.0993 82.8432 14.5952H84.8432ZM83.9356 12.3786C83.381 11.9219 82.7192 11.7031 82.0023 11.7031V13.7031C82.2911 13.7031 82.4943 13.7826 82.6642 13.9225L83.9356 12.3786ZM82.0023 11.7031C81.1601 11.7031 80.3815 11.9723 79.808 12.6094L81.2946 13.9474C81.4115 13.8175 81.6002 13.7031 82.0023 13.7031V11.7031ZM79.8117 12.6053C79.272 13.1984 79.0336 13.94 79.0336 14.7422H81.0336C81.0336 14.3512 81.1403 14.1169 81.2909 13.9515L79.8117 12.6053ZM79.0336 14.7422V21H81.0336V14.7422H79.0336ZM80.0336 20H78.1287V22H80.0336V20ZM79.1287 21V14.4737H77.1287V21H79.1287ZM79.1287 14.4737C79.1287 13.7148 78.8826 13.0131 78.328 12.4727L76.9323 13.9052C77.0424 14.0125 77.1287 14.1673 77.1287 14.4737H79.1287ZM78.328 12.4727C77.781 11.9397 77.0843 11.7031 76.3326 11.7031V13.7031C76.6462 13.7031 76.8145 13.7904 76.9323 13.9051L78.328 12.4727ZM76.3326 11.7031C75.7831 11.7031 75.2649 11.8516 74.799 12.1428L75.859 13.8388C76.0067 13.7465 76.1575 13.7031 76.3326 13.7031V11.7031ZM74.8022 12.1408C74.3432 12.4252 73.9836 12.8177 73.7203 13.2904L75.4676 14.2636C75.5793 14.063 75.7097 13.9313 75.8558 13.8408L74.8022 12.1408ZM73.7156 13.2989C73.4408 13.8037 73.3191 14.3628 73.3191 14.9467H75.3191C75.3191 14.6443 75.3805 14.4235 75.4722 14.2551L73.7156 13.2989ZM73.3191 14.9467V21H75.3191V14.9467H73.3191ZM74.3191 20H72.4078V22H74.3191V20ZM94.5355 16.9283H93.5355L93.5355 16.9359L94.5355 16.9283ZM94.5355 11.1818V10.1818H93.5355V11.1818H94.5355ZM96.4531 11.1818H97.4531V10.1818H96.4531V11.1818ZM96.4531 21V22H97.4531V21H96.4531ZM94.5739 21H93.5739V22H94.5739V21ZM94.5739 19.2997H95.5739V18.2997H94.5739V19.2997ZM94.4716 19.2997V18.2997H93.8136L93.5532 18.904L94.4716 19.2997ZM93.3849 20.6101L93.9575 21.43L93.9589 21.429L93.3849 20.6101ZM89.8629 20.7124L89.3586 21.5759L89.3676 21.5811L89.8629 20.7124ZM88.7251 19.4659L87.8293 19.9104L87.8321 19.9159L88.7251 19.4659ZM88.3161 11.1818V10.1818H87.3161V11.1818H88.3161ZM90.2273 11.1818H91.2273V10.1818H90.2273V11.1818ZM90.7834 18.7947L91.5137 18.1116L90.7834 18.7947ZM93.2955 19.1207L92.8482 18.2263L92.8439 18.2285L93.2955 19.1207ZM94.1839 18.3089L93.3489 17.7588L93.3444 17.7657L94.1839 18.3089ZM95.5355 16.9283V11.1818H93.5355V16.9283H95.5355ZM94.5355 12.1818H96.4531V10.1818H94.5355V12.1818ZM95.4531 11.1818V21H97.4531V11.1818H95.4531ZM96.4531 20H94.5739V22H96.4531V20ZM95.5739 21V19.2997H93.5739V21H95.5739ZM94.5739 18.2997H94.4716V20.2997H94.5739V18.2997ZM93.5532 18.904C93.4057 19.2464 93.1683 19.5408 92.811 19.7912L93.9589 21.429C94.5987 20.9806 95.0858 20.4013 95.39 19.6954L93.5532 18.904ZM92.8124 19.7902C92.5203 19.9942 92.1163 20.1278 91.5376 20.1278V22.1278C92.4334 22.1278 93.2609 21.9163 93.9575 21.43L92.8124 19.7902ZM91.5376 20.1278C91.0581 20.1278 90.6746 20.024 90.3582 19.8436L89.3676 21.5811C90.0228 21.9546 90.7559 22.1278 91.5376 22.1278V20.1278ZM90.3673 19.8489C90.0696 19.675 89.8176 19.4117 89.6182 19.0159L87.8321 19.9159C88.1866 20.6195 88.6932 21.1872 89.3586 21.5759L90.3673 19.8489ZM89.621 19.0215C89.435 18.6467 89.3161 18.1295 89.3161 17.4268H87.3161C87.3161 18.3435 87.4698 19.1856 87.8293 19.9103L89.621 19.0215ZM89.3161 17.4268V11.1818H87.3161V17.4268H89.3161ZM88.3161 12.1818H90.2273V10.1818H88.3161V12.1818ZM89.2273 11.1818V17.1967H91.2273V11.1818H89.2273ZM89.2273 17.1967C89.2273 18.0574 89.4709 18.8555 90.0531 19.4779L91.5137 18.1116C91.3544 17.9414 91.2273 17.6741 91.2273 17.1967H89.2273ZM90.0531 19.4779C90.6314 20.096 91.3871 20.3892 92.228 20.3892V18.3892C91.8843 18.3892 91.6769 18.2861 91.5137 18.1116L90.0531 19.4779ZM92.228 20.3892C92.759 20.3892 93.2686 20.2551 93.747 20.013L92.8439 18.2285C92.615 18.3443 92.4128 18.3892 92.228 18.3892V20.3892ZM93.7427 20.0152C94.2729 19.7501 94.6999 19.3523 95.0235 18.8522L93.3444 17.7657C93.1992 17.99 93.034 18.1335 92.8482 18.2263L93.7427 20.0152ZM95.019 18.8591C95.3941 18.2898 95.5408 17.6206 95.5355 16.9206L93.5355 16.9359C93.5387 17.3524 93.4511 17.6036 93.3489 17.7588L95.019 18.8591ZM106.378 13.5788L106.553 14.5635L107.614 14.3755L107.347 13.3312L106.378 13.5788ZM104.646 13.8857L103.696 14.1964L103.965 15.0218L104.821 14.8703L104.646 13.8857ZM104.301 13.2528L103.507 13.861L103.515 13.8714L104.301 13.2528ZM103.675 12.7607L104.11 11.8605L103.675 12.7607ZM101.329 12.9332L101.879 13.7683L101.886 13.7638L101.329 12.9332ZM102.326 15.1449L102.096 16.1181L102.102 16.1195L102.326 15.1449ZM103.885 15.5028L104.111 14.5285L104.109 14.5282L103.885 15.5028ZM105.905 16.468L105.205 17.182L105.905 16.468ZM106.059 19.7344L105.255 19.1391L105.254 19.1404L106.059 19.7344ZM104.646 20.8082L104.251 19.8894L104.249 19.8904L104.646 20.8082ZM99.8649 20.495L99.302 21.3216L99.3055 21.3239L99.8649 20.495ZM98.5865 18.4815L98.436 17.4929L97.4189 17.6478L97.6025 18.66L98.5865 18.4815ZM100.434 18.2003L101.406 17.9679L101.193 17.0732L100.283 17.2117L100.434 18.2003ZM101.143 19.2933L100.575 20.1162L100.582 20.1208L101.143 19.2933ZM104.045 19.2678L104.615 20.0896L104.621 20.0852L104.045 19.2678ZM104.263 17.5291L103.584 18.2634L103.591 18.2697L104.263 17.5291ZM103.221 17.0561L103.442 16.0809L103.435 16.0793L103.221 17.0561ZM101.559 16.6918L101.337 17.6668L101.345 17.6686L101.559 16.6918ZM99.5261 15.6946L98.8023 16.3846L98.8057 16.3881L99.5261 15.6946ZM99.3599 12.4411L98.558 11.8436V11.8436L99.3599 12.4411ZM100.702 11.4247L101.094 12.3449L101.099 12.3424L100.702 11.4247ZM105.17 11.7443L104.568 12.5423L104.571 12.545L105.17 11.7443ZM106.204 12.5942L104.472 12.901L104.821 14.8703L106.553 14.5635L106.204 12.5942ZM105.597 13.5749C105.484 13.2319 105.31 12.9181 105.087 12.6343L103.515 13.8714C103.607 13.9881 103.663 14.0962 103.696 14.1964L105.597 13.5749ZM105.095 12.6448C104.832 12.3017 104.492 12.0453 104.11 11.8605L103.239 13.6608C103.386 13.7317 103.463 13.8034 103.507 13.8609L105.095 12.6448ZM104.11 11.8605C103.671 11.6481 103.181 11.5689 102.684 11.5689V13.5689C102.979 13.5689 103.149 13.6175 103.239 13.6608L104.11 11.8605ZM102.684 11.5689C101.992 11.5689 101.334 11.7253 100.772 12.1027L101.886 13.7638C102.047 13.6554 102.293 13.5689 102.684 13.5689V11.5689ZM100.779 12.0982C100.183 12.4907 99.7853 13.0917 99.7853 13.8601H101.785C101.785 13.8455 101.787 13.841 101.786 13.8433C101.786 13.8442 101.786 13.8456 101.785 13.8472C101.785 13.8479 101.784 13.8485 101.784 13.849C101.784 13.8495 101.784 13.8497 101.784 13.8496C101.784 13.8496 101.785 13.8481 101.787 13.8449C101.79 13.8417 101.794 13.8366 101.801 13.8297C101.815 13.8159 101.839 13.7946 101.879 13.7683L100.779 12.0982ZM99.7853 13.8601C99.7853 14.4723 100.029 15.0249 100.513 15.4242L101.786 13.8812C101.777 13.8739 101.775 13.871 101.777 13.8733C101.779 13.8758 101.782 13.8806 101.785 13.8867C101.788 13.8926 101.788 13.8956 101.788 13.8933C101.787 13.8907 101.785 13.8803 101.785 13.8601H99.7853ZM100.513 15.4242C100.933 15.7703 101.503 15.9781 102.096 16.1181L102.556 14.1717C102.066 14.056 101.852 13.9357 101.786 13.8812L100.513 15.4242ZM102.102 16.1195L103.662 16.4775L104.109 14.5282L102.55 14.1702L102.102 16.1195ZM103.66 16.4772C104.467 16.6636 104.943 16.9248 105.205 17.182L106.606 15.7541C105.981 15.142 105.111 14.7597 104.111 14.5285L103.66 16.4772ZM105.205 17.182C105.433 17.4054 105.57 17.7009 105.57 18.1619H107.57C107.57 17.2338 107.264 16.4 106.606 15.7541L105.205 17.182ZM105.57 18.1619C105.57 18.5418 105.465 18.856 105.255 19.1391L106.862 20.3296C107.334 19.6923 107.57 18.9582 107.57 18.1619H105.57ZM105.254 19.1404C105.039 19.432 104.72 19.688 104.251 19.8894L105.041 21.727C105.782 21.4086 106.405 20.9487 106.863 20.3283L105.254 19.1404ZM104.249 19.8904C103.797 20.086 103.24 20.1982 102.556 20.1982V22.1982C103.457 22.1982 104.294 22.0504 105.043 21.726L104.249 19.8904ZM102.556 20.1982C101.594 20.1982 100.909 19.9934 100.424 19.6661L99.3055 21.3239C100.21 21.9342 101.319 22.1982 102.556 22.1982V20.1982ZM100.428 19.6685C99.9671 19.3548 99.683 18.9238 99.5704 18.3031L97.6025 18.66C97.8053 19.7779 98.3735 20.6893 99.302 21.3216L100.428 19.6685ZM98.737 19.4701L100.584 19.1889L100.283 17.2117L98.436 17.4929L98.737 19.4701ZM99.4612 18.4327C99.6251 19.1187 99.986 19.7094 100.575 20.1162L101.711 18.4704C101.585 18.3829 101.473 18.2449 101.406 17.9679L99.4612 18.4327ZM100.582 20.1208C101.152 20.5078 101.833 20.6577 102.543 20.6577V18.6577C102.103 18.6577 101.85 18.5647 101.705 18.4658L100.582 20.1208ZM102.543 20.6577C103.299 20.6577 104.021 20.5015 104.615 20.0896L103.476 18.4459C103.32 18.5539 103.04 18.6577 102.543 18.6577V20.6577ZM104.621 20.0852C105.199 19.6782 105.608 19.0774 105.608 18.3026H103.608C103.608 18.3087 103.607 18.3126 103.607 18.3147C103.607 18.3167 103.607 18.3176 103.607 18.3178C103.607 18.318 103.606 18.3183 103.606 18.319C103.606 18.3197 103.605 18.3216 103.603 18.3248C103.597 18.3362 103.566 18.3822 103.469 18.4503L104.621 20.0852ZM105.608 18.3026C105.608 17.7096 105.371 17.1842 104.935 16.7886L103.591 18.2697C103.603 18.2808 103.608 18.2877 103.61 18.2896C103.611 18.2913 103.61 18.2902 103.608 18.2866C103.607 18.2831 103.606 18.2808 103.606 18.2813C103.606 18.2821 103.608 18.2886 103.608 18.3026H105.608ZM104.941 16.7948C104.534 16.4182 103.994 16.2064 103.442 16.081L102.999 18.0312C103.385 18.1188 103.539 18.2225 103.584 18.2634L104.941 16.7948ZM103.435 16.0793L101.773 15.715L101.345 17.6686L103.007 18.0329L103.435 16.0793ZM101.781 15.7168C100.968 15.5315 100.5 15.2641 100.247 15.0011L98.8057 16.3881C99.4303 17.0371 100.317 17.4344 101.337 17.6668L101.781 15.7168ZM100.25 15.0046C100.013 14.7556 99.8741 14.4349 99.8741 13.9624H97.8741C97.8741 14.8876 98.1703 15.7216 98.8023 16.3846L100.25 15.0046ZM99.8741 13.9624C99.8741 13.5823 99.9757 13.2883 100.162 13.0385L98.558 11.8436C98.0964 12.4631 97.8741 13.1833 97.8741 13.9624H99.8741ZM100.162 13.0385C100.365 12.7654 100.662 12.5287 101.094 12.3449L100.311 10.5045C99.6008 10.8065 99.0023 11.2473 98.558 11.8436L100.162 13.0385ZM101.099 12.3424C101.524 12.1586 102.039 12.054 102.665 12.054V10.054C101.816 10.054 101.022 10.1965 100.305 10.507L101.099 12.3424ZM102.665 12.054C103.591 12.054 104.188 12.2556 104.568 12.5423L105.773 10.9463C104.934 10.3125 103.86 10.054 102.665 10.054V12.054ZM104.571 12.545C104.99 12.8584 105.268 13.2709 105.41 13.8264L107.347 13.3312C107.097 12.3527 106.569 11.5422 105.769 10.9436L104.571 12.545ZM106.843 9.60938H105.843V10.6094H106.843V9.60938ZM106.843 7.90909V6.90909H105.843V7.90909H106.843ZM116.975 7.90909H117.975V6.90909H116.975V7.90909ZM116.975 9.60938V10.6094H117.975V9.60938H116.975ZM112.89 9.60938V8.60938H111.89V9.60938H112.89ZM112.89 21V22H113.89V21H112.89ZM110.922 21H109.922V22H110.922V21ZM110.922 9.60938H111.922V8.60938H110.922V9.60938ZM107.843 9.60938V7.90909H105.843V9.60938H107.843ZM106.843 8.90909H116.975V6.90909H106.843V8.90909ZM115.975 7.90909V9.60938H117.975V7.90909H115.975ZM116.975 8.60938H112.89V10.6094H116.975V8.60938ZM111.89 9.60938V21H113.89V9.60938H111.89ZM112.89 20H110.922V22H112.89V20ZM111.922 21V9.60938H109.922V21H111.922ZM110.922 8.60938H106.843V10.6094H110.922V8.60938ZM119.369 20.5781L118.853 21.4352L118.86 21.4388L119.369 20.5781ZM117.758 18.8203L116.861 19.2635L116.864 19.2695L117.758 18.8203ZM117.758 13.4957L116.861 13.0525L116.859 13.0565L117.758 13.4957ZM119.343 11.6996L118.809 10.854L118.807 10.8555L119.343 11.6996ZM123.344 11.3288L123.677 10.3857L123.344 11.3288ZM124.744 12.1918L124.056 12.9173V12.9173L124.744 12.1918ZM125.722 13.7195L124.788 14.0755L124.789 14.0776L125.722 13.7195ZM126.08 16.6662V17.6662H127.08V16.6662H126.08ZM118.276 16.6662H117.276V17.6662H118.276V16.6662ZM118.276 15.2344V14.2344H117.276V15.2344H118.276ZM124.207 15.2344V16.2344H125.207V15.2344H124.207ZM123.901 13.8984L123.014 14.361L123.016 14.365L123.901 13.8984ZM123.038 12.9716L122.513 13.8229L122.517 13.8256L123.038 12.9716ZM120.34 13.0291L120.889 13.8653L120.891 13.8639L120.34 13.0291ZM119.42 14.0518L118.531 13.5939L118.529 13.5974L119.42 14.0518ZM119.445 18.2067L118.551 18.6539L118.554 18.6605L119.445 18.2067ZM120.423 19.2614L119.921 20.1258L119.927 20.1296L120.423 19.2614ZM122.878 19.4659L123.202 20.4119L123.214 20.4077L122.878 19.4659ZM123.651 18.9929L122.958 18.2718L123.651 18.9929ZM124.15 18.2195L124.327 17.2353L123.506 17.0874L123.214 17.8683L124.15 18.2195ZM125.959 18.5455L126.924 18.8079L127.21 17.7549L126.136 17.5613L125.959 18.5455ZM125.179 19.9453L124.449 19.2619L124.449 19.2622L125.179 19.9453ZM123.779 20.8722L124.142 21.804L124.146 21.8026L123.779 20.8722ZM121.868 20.1982C121.045 20.1982 120.395 20.0235 119.878 19.7174L118.86 21.4388C119.74 21.9594 120.756 22.1982 121.868 22.1982V20.1982ZM119.884 19.7211C119.358 19.4051 118.949 18.9638 118.651 18.3711L116.864 19.2695C117.325 20.1854 117.99 20.9159 118.853 21.4352L119.884 19.7211ZM118.654 18.3771C118.36 17.7817 118.195 17.0505 118.195 16.1548H116.195C116.195 17.2961 116.406 18.3419 116.861 19.2635L118.654 18.3771ZM118.195 16.1548C118.195 15.2745 118.359 14.543 118.656 13.9349L116.859 13.0565C116.407 13.9826 116.195 15.0238 116.195 16.1548H118.195ZM118.654 13.939C118.958 13.3247 119.366 12.8694 119.879 12.5437L118.807 10.8555C117.965 11.3905 117.316 12.1327 116.861 13.0525L118.654 13.939ZM119.877 12.5452C120.379 12.2284 120.985 12.054 121.734 12.054V10.054C120.658 10.054 119.671 10.3099 118.809 10.854L119.877 12.5452ZM121.734 12.054C122.175 12.054 122.599 12.1266 123.012 12.272L123.677 10.3857C123.05 10.1646 122.4 10.054 121.734 10.054V12.054ZM123.012 12.272C123.395 12.4069 123.741 12.6187 124.056 12.9173L125.432 11.4662C124.921 10.9808 124.334 10.6172 123.677 10.3857L123.012 12.272ZM124.056 12.9173C124.343 13.1895 124.593 13.5646 124.788 14.0755L126.657 13.3635C126.374 12.6215 125.972 11.9781 125.432 11.4662L124.056 12.9173ZM124.789 14.0776C124.971 14.5541 125.08 15.1817 125.08 15.9886H127.08C127.08 15.0143 126.95 14.1291 126.656 13.3613L124.789 14.0776ZM125.08 15.9886V16.6662H127.08V15.9886H125.08ZM126.08 15.6662H118.276V17.6662H126.08V15.6662ZM119.276 16.6662V15.2344H117.276V16.6662H119.276ZM118.276 16.2344H124.207V14.2344H118.276V16.2344ZM125.207 15.2344C125.207 14.593 125.076 13.9834 124.785 13.4319L123.016 14.365C123.134 14.5891 123.207 14.8701 123.207 15.2344H125.207ZM124.787 13.4359C124.5 12.8856 124.087 12.44 123.558 12.1176L122.517 13.8256C122.73 13.9549 122.892 14.1272 123.014 14.361L124.787 13.4359ZM123.562 12.1203C123.016 11.7835 122.398 11.6328 121.746 11.6328V13.6328C122.084 13.6328 122.327 13.708 122.513 13.8229L123.562 12.1203ZM121.746 11.6328C121.038 11.6328 120.373 11.8098 119.79 12.1943L120.891 13.8639C121.109 13.72 121.381 13.6328 121.746 13.6328V11.6328ZM119.792 12.1929C119.251 12.5476 118.827 13.0189 118.531 13.5939L120.309 14.5098C120.447 14.241 120.637 14.0305 120.889 13.8653L119.792 12.1929ZM118.529 13.5974C118.241 14.1622 118.1 14.7727 118.1 15.4134H120.1C120.1 15.0739 120.173 14.7768 120.311 14.5063L118.529 13.5974ZM118.1 15.4134V16.532H120.1V15.4134H118.1ZM118.1 16.532C118.1 17.302 118.235 18.0219 118.551 18.6539L120.34 17.7595C120.195 17.471 120.1 17.0745 120.1 16.532H118.1ZM118.554 18.6605C118.87 19.2797 119.325 19.7794 119.921 20.1258L120.926 18.3969C120.686 18.2575 120.49 18.0541 120.336 17.7529L118.554 18.6605ZM119.927 20.1296C120.519 20.4676 121.183 20.6193 121.887 20.6193V18.6193C121.475 18.6193 121.163 18.5324 120.919 18.3931L119.927 20.1296ZM121.887 20.6193C122.344 20.6193 122.785 20.5548 123.202 20.4119L122.554 18.52C122.374 18.5816 122.155 18.6193 121.887 18.6193V20.6193ZM123.214 20.4077C123.639 20.2561 124.02 20.0257 124.344 19.714L122.958 18.2718C122.848 18.3777 122.714 18.4627 122.542 18.5242L123.214 20.4077ZM124.344 19.714C124.678 19.3928 124.923 19.005 125.086 18.5706L123.214 17.8683C123.146 18.0476 123.059 18.1754 122.958 18.2718L124.344 19.714ZM123.973 19.2036L125.781 19.5296L126.136 17.5613L124.327 17.2353L123.973 19.2036ZM124.994 18.283C124.892 18.6593 124.712 18.9811 124.449 19.2619L125.909 20.6287C126.396 20.1084 126.736 19.497 126.924 18.8079L124.994 18.283ZM124.449 19.2622C124.19 19.5383 123.853 19.7683 123.413 19.9418L124.146 21.8026C124.83 21.5328 125.426 21.145 125.909 20.6285L124.449 19.2622ZM123.416 19.9403C122.994 20.1047 122.483 20.1982 121.868 20.1982V22.1982C122.684 22.1982 123.448 22.0742 124.142 21.804L123.416 19.9403ZM129.882 20.5526L129.344 21.3958L129.351 21.3997L129.882 20.5526ZM128.322 13.4957L129.22 13.9369L129.221 13.9349L128.322 13.4957ZM129.907 11.6996L129.374 10.854L129.374 10.854L129.907 11.6996ZM134.312 11.4695L133.883 12.3729L133.888 12.3755L134.312 11.4695ZM135.724 12.62L134.914 13.2065L134.918 13.2111L135.724 12.62ZM136.37 14.3523V15.3523H137.478L137.365 14.2496L136.37 14.3523ZM134.51 14.3523L133.534 14.5692L133.708 15.3523H134.51V14.3523ZM133.807 13.1634L133.131 13.9002L133.135 13.9041L133.807 13.1634ZM130.949 13.0866L131.522 13.9063L131.524 13.9051L130.949 13.0866ZM130.023 14.2756L130.94 14.6732L130.941 14.6704L130.023 14.2756ZM130.016 17.9446L130.939 17.5589L130.016 17.9446ZM130.937 19.1527L130.352 19.9641L130.356 19.967L130.937 19.1527ZM133.334 19.3828L133.743 20.295L133.749 20.2923L133.334 19.3828ZM134.081 18.8011L133.306 18.17L133.299 18.1781L134.081 18.8011ZM134.51 17.8935V16.8935H133.713L133.535 17.6703L134.51 17.8935ZM136.37 17.8935L137.364 18.0002L137.483 16.8935H136.37V17.8935ZM135.75 19.5938L136.572 20.163L135.75 19.5938ZM134.363 20.7699L133.921 19.8728L133.918 19.8741L134.363 20.7699ZM132.336 20.1982C131.541 20.1982 130.914 20.0197 130.413 19.7054L129.351 21.3997C130.222 21.9462 131.231 22.1982 132.336 22.1982V20.1982ZM130.419 19.7093C129.902 19.3796 129.501 18.9264 129.211 18.3233L127.408 19.1895C127.851 20.112 128.498 20.8562 129.344 21.3958L130.419 19.7093ZM129.211 18.3233C128.919 17.7161 128.76 16.9945 128.76 16.1357H126.76C126.76 17.2456 126.967 18.2712 127.408 19.1895L129.211 18.3233ZM128.76 16.1357C128.76 15.2651 128.923 14.5406 129.22 13.9369L127.425 13.0546C126.972 13.9765 126.76 15.0119 126.76 16.1357H128.76ZM129.221 13.9349C129.519 13.3243 129.926 12.8706 130.441 12.5452L129.374 10.854C128.526 11.3893 127.875 12.1331 127.424 13.0565L129.221 13.9349ZM130.441 12.5452C130.941 12.2298 131.553 12.054 132.317 12.054V10.054C131.232 10.054 130.238 10.3085 129.374 10.854L130.441 12.5452ZM132.317 12.054C132.938 12.054 133.452 12.1686 133.883 12.3729L134.74 10.566C134.003 10.2163 133.189 10.054 132.317 10.054V12.054ZM133.888 12.3755C134.327 12.5804 134.662 12.8576 134.914 13.2065L136.534 12.0335C136.071 11.3938 135.464 10.9039 134.735 10.5634L133.888 12.3755ZM134.918 13.2111C135.166 13.5503 135.324 13.9558 135.375 14.455L137.365 14.2496C137.28 13.4277 137.007 12.6784 136.531 12.029L134.918 13.2111ZM136.37 13.3523H134.51V15.3523H136.37V13.3523ZM135.486 14.1353C135.337 13.4629 134.99 12.8867 134.478 12.4226L133.135 13.9041C133.356 14.1048 133.478 14.3212 133.534 14.5692L135.486 14.1353ZM134.483 12.4266C133.895 11.8868 133.146 11.6648 132.349 11.6648V13.6648C132.771 13.6648 132.994 13.7751 133.131 13.9001L134.483 12.4266ZM132.349 11.6648C131.63 11.6648 130.959 11.8583 130.375 12.2682L131.524 13.9051C131.741 13.7525 132.003 13.6648 132.349 13.6648V11.6648ZM130.377 12.267C129.804 12.6668 129.387 13.222 129.104 13.8807L130.941 14.6704C131.101 14.2978 131.302 14.0604 131.522 13.9063L130.377 12.267ZM129.105 13.878C128.817 14.5424 128.69 15.2889 128.69 16.0909H130.69C130.69 15.4952 130.785 15.0315 130.94 14.6732L129.105 13.878ZM128.69 16.0909C128.69 16.9048 128.813 17.66 129.094 18.3303L130.939 17.5589C130.784 17.1894 130.69 16.7088 130.69 16.0909H128.69ZM129.094 18.3303C129.371 18.9939 129.784 19.5549 130.352 19.9641L131.521 18.3413C131.297 18.1795 131.096 17.9351 130.939 17.5589L129.094 18.3303ZM130.356 19.967C130.943 20.3854 131.622 20.581 132.349 20.581V18.581C131.994 18.581 131.731 18.491 131.517 18.3384L130.356 19.967ZM132.349 20.581C132.835 20.581 133.305 20.4918 133.743 20.295L132.924 18.4706C132.774 18.5381 132.588 18.581 132.349 18.581V20.581ZM133.749 20.2923C134.188 20.092 134.563 19.8011 134.864 19.4242L133.299 18.1781C133.199 18.304 133.076 18.4009 132.918 18.4733L133.749 20.2923ZM134.857 19.4322C135.17 19.0483 135.374 18.6017 135.485 18.1166L133.535 17.6703C133.484 17.8926 133.403 18.0511 133.306 18.17L134.857 19.4322ZM134.51 18.8935H136.37V16.8935H134.51V18.8935ZM135.376 17.7867C135.324 18.2647 135.173 18.6707 134.928 19.0245L136.572 20.163C137.017 19.5197 137.279 18.7922 137.364 18.0002L135.376 17.7867ZM134.928 19.0245C134.686 19.3741 134.358 19.6574 133.921 19.8728L134.805 21.6669C135.526 21.3113 136.124 20.8105 136.572 20.163L134.928 19.0245ZM133.918 19.8741C133.507 20.0783 132.989 20.1982 132.336 20.1982V22.1982C133.235 22.1982 134.068 22.0325 134.807 21.6656L133.918 19.8741ZM140.325 21V22H141.325V21H140.325ZM138.414 21H137.414V22H138.414V21ZM138.414 7.90909V6.90909H137.414V7.90909H138.414ZM140.299 7.90909H141.299V6.90909H140.299V7.90909ZM140.299 12.7798H139.299V13.7798H140.299V12.7798ZM140.421 12.7798V13.7798H141.076L141.338 13.1791L140.421 12.7798ZM141.475 11.5206L140.926 10.6851V10.6851L141.475 11.5206ZM145.093 11.4695L144.611 12.3454L144.614 12.3471L145.093 11.4695ZM146.27 12.7095L145.376 13.1595L145.381 13.1678L146.27 12.7095ZM146.691 21V22H147.691V21H146.691ZM144.78 21H143.78V22H144.78V21ZM144.224 13.3104L143.49 13.9896L143.494 13.9935L144.224 13.3104ZM141.463 12.9972L140.99 12.1157L140.986 12.1181L141.463 12.9972ZM140.625 13.8409L139.75 13.3578L139.748 13.3613L140.625 13.8409ZM139.325 15.1705V21H141.325V15.1705H139.325ZM140.325 20H138.414V22H140.325V20ZM139.414 21V7.90909H137.414V21H139.414ZM138.414 8.90909H140.299V6.90909H138.414V8.90909ZM139.299 7.90909V12.7798H141.299V7.90909H139.299ZM140.299 13.7798H140.421V11.7798H140.299V13.7798ZM141.338 13.1791C141.492 12.8253 141.717 12.5585 142.025 12.3561L140.926 10.6851C140.288 11.1049 139.81 11.6776 139.504 12.3806L141.338 13.1791ZM142.025 12.3561C142.287 12.1837 142.696 12.054 143.329 12.054V10.054C142.437 10.054 141.61 10.2354 140.926 10.6851L142.025 12.3561ZM143.329 12.054C143.863 12.054 144.28 12.1628 144.611 12.3454L145.576 10.5936C144.902 10.2221 144.142 10.054 143.329 10.054V12.054ZM144.614 12.3471C144.931 12.5203 145.185 12.7785 145.376 13.1595L147.163 12.2595C146.801 11.5411 146.27 10.9726 145.573 10.5918L144.614 12.3471ZM145.381 13.1678C145.569 13.5323 145.691 14.0453 145.691 14.755H147.691C147.691 13.8283 147.533 12.9776 147.158 12.2512L145.381 13.1678ZM145.691 14.755V21H147.691V14.755H145.691ZM146.691 20H144.78V22H146.691V20ZM145.78 21V14.9851H143.78V21H145.78ZM145.78 14.9851C145.78 14.0962 145.549 13.2627 144.954 12.6272L143.494 13.9935C143.641 14.1506 143.78 14.4336 143.78 14.9851H145.78ZM144.958 12.6311C144.359 11.9838 143.553 11.7095 142.677 11.7095V13.7095C143.122 13.7095 143.348 13.8358 143.49 13.9896L144.958 12.6311ZM142.677 11.7095C142.08 11.7095 141.509 11.8377 140.99 12.1157L141.935 13.8786C142.132 13.7731 142.371 13.7095 142.677 13.7095V11.7095ZM140.986 12.1181C140.455 12.4059 140.042 12.8289 139.75 13.3578L141.501 14.324C141.618 14.1115 141.763 13.972 141.939 13.8763L140.986 12.1181ZM139.748 13.3613C139.45 13.9067 139.325 14.5234 139.325 15.1705H141.325C141.325 14.7778 141.4 14.5081 141.503 14.3205L139.748 13.3613Z" fill="black" fill-opacity="0.2"/>
</g>
<defs>
<filter id="filter0_dd_0_9882" x="32.0164" y="7.38489" width="118.675" height="25.2969" filterUnits="userSpaceOnUse" color-interpolation-filters="sRGB">
<feFlood flood-opacity="0" result="BackgroundImageFix"/>
<feColorMatrix in="SourceAlpha" type="matrix" values="0 0 0 0 0 0 0 0 0 0 0 0 0 0 0 0 0 0 127 0" result="hardAlpha"/>
<feOffset dy="4"/>
<feGaussianBlur stdDeviation="2"/>
<feComposite in2="hardAlpha" operator="out"/>
<feColorMatrix type="matrix" values="0 0 0 0 0 0 0 0 0 0 0 0 0 0 0 0 0 0 0.25 0"/>
<feBlend mode="normal" in2="BackgroundImageFix" result="effect1_dropShadow_0_9882"/>
<feColorMatrix in="SourceAlpha" type="matrix" values="0 0 0 0 0 0 0 0 0 0 0 0 0 0 0 0 0 0 127 0" result="hardAlpha"/>
<feOffset dy="4"/>
<feGaussianBlur stdDeviation="2"/>
<feComposite in2="hardAlpha" operator="out"/>
<feColorMatrix type="matrix" values="0 0 0 0 0 0 0 0 0 0 0 0 0 0 0 0 0 0 0.25 0"/>
<feBlend mode="normal" in2="effect1_dropShadow_0_9882" result="effect2_dropShadow_0_9882"/>
<feBlend mode="normal" in="SourceGraphic" in2="effect2_dropShadow_0_9882" result="shape"/>
</filter>
</defs>
</svg>
